<mxfile host="app.diagrams.net" modified="2024-01-16T23:41:46.860Z" agent="Mozilla/5.0 (Windows NT 10.0; Win64; x64) AppleWebKit/537.36 (KHTML, like Gecko) Chrome/120.0.0.0 Safari/537.36" etag="qLrvQdIwpOSCXP7raCC_" version="22.1.20" type="device">
  <diagram name="Page-1" id="6uvn0BjRNNA6eKQeH8ag">
    <mxGraphModel dx="1287" dy="939" grid="0" gridSize="10" guides="1" tooltips="1" connect="1" arrows="1" fold="1" page="0" pageScale="1" pageWidth="827" pageHeight="1169" math="0" shadow="0">
      <root>
        <mxCell id="0" />
        <mxCell id="1" parent="0" />
        <mxCell id="ab1ZRsi_1XtIqZTIRvgs-25" value="" style="rounded=1;whiteSpace=wrap;html=1;" vertex="1" parent="1">
          <mxGeometry x="803" y="-119" width="482" height="300" as="geometry" />
        </mxCell>
        <mxCell id="ab1ZRsi_1XtIqZTIRvgs-21" value="" style="rounded=1;whiteSpace=wrap;html=1;" vertex="1" parent="1">
          <mxGeometry x="28" y="-117" width="674" height="300" as="geometry" />
        </mxCell>
        <mxCell id="ab1ZRsi_1XtIqZTIRvgs-1" value="AVALON" style="rounded=1;whiteSpace=wrap;html=1;fillColor=#dae8fc;gradientColor=#7ea6e0;strokeColor=#6c8ebf;" vertex="1" parent="1">
          <mxGeometry x="56" y="1" width="611" height="60" as="geometry" />
        </mxCell>
        <mxCell id="ab1ZRsi_1XtIqZTIRvgs-2" value="CLK" style="rounded=1;whiteSpace=wrap;html=1;fillColor=#ffcccc;strokeColor=#36393d;" vertex="1" parent="1">
          <mxGeometry x="56" y="91" width="87" height="60" as="geometry" />
        </mxCell>
        <mxCell id="ab1ZRsi_1XtIqZTIRvgs-3" value="JTAG" style="rounded=1;whiteSpace=wrap;html=1;fillColor=#eeeeee;strokeColor=#36393d;" vertex="1" parent="1">
          <mxGeometry x="161" y="91" width="87" height="60" as="geometry" />
        </mxCell>
        <mxCell id="ab1ZRsi_1XtIqZTIRvgs-4" value="RAM0" style="rounded=1;whiteSpace=wrap;html=1;fillColor=#cce5ff;strokeColor=#36393d;" vertex="1" parent="1">
          <mxGeometry x="266" y="91" width="87" height="60" as="geometry" />
        </mxCell>
        <mxCell id="ab1ZRsi_1XtIqZTIRvgs-39" style="edgeStyle=orthogonalEdgeStyle;rounded=0;orthogonalLoop=1;jettySize=auto;html=1;entryX=0;entryY=0.5;entryDx=0;entryDy=0;" edge="1" parent="1" source="ab1ZRsi_1XtIqZTIRvgs-5" target="ab1ZRsi_1XtIqZTIRvgs-24">
          <mxGeometry relative="1" as="geometry">
            <Array as="points">
              <mxPoint x="414" y="239" />
              <mxPoint x="773" y="239" />
              <mxPoint x="773" y="121" />
            </Array>
          </mxGeometry>
        </mxCell>
        <mxCell id="ab1ZRsi_1XtIqZTIRvgs-5" value="SEG1 &lt;br&gt;(4 bits)" style="rounded=1;whiteSpace=wrap;html=1;fillColor=#ffcc99;strokeColor=#36393d;" vertex="1" parent="1">
          <mxGeometry x="371" y="91" width="87" height="60" as="geometry" />
        </mxCell>
        <mxCell id="ab1ZRsi_1XtIqZTIRvgs-38" style="edgeStyle=orthogonalEdgeStyle;rounded=0;orthogonalLoop=1;jettySize=auto;html=1;entryX=0;entryY=0.5;entryDx=0;entryDy=0;" edge="1" parent="1" source="ab1ZRsi_1XtIqZTIRvgs-6" target="ab1ZRsi_1XtIqZTIRvgs-23">
          <mxGeometry relative="1" as="geometry">
            <Array as="points">
              <mxPoint x="520" y="209" />
              <mxPoint x="746" y="209" />
              <mxPoint x="746" y="33" />
            </Array>
          </mxGeometry>
        </mxCell>
        <mxCell id="ab1ZRsi_1XtIqZTIRvgs-6" value="SEG2 &lt;br&gt;(4 bits)" style="rounded=1;whiteSpace=wrap;html=1;fillColor=#ffcc99;strokeColor=#36393d;" vertex="1" parent="1">
          <mxGeometry x="476" y="91" width="87" height="60" as="geometry" />
        </mxCell>
        <mxCell id="ab1ZRsi_1XtIqZTIRvgs-37" style="edgeStyle=orthogonalEdgeStyle;rounded=0;orthogonalLoop=1;jettySize=auto;html=1;entryX=0;entryY=0.5;entryDx=0;entryDy=0;" edge="1" parent="1" source="ab1ZRsi_1XtIqZTIRvgs-7" target="ab1ZRsi_1XtIqZTIRvgs-27">
          <mxGeometry relative="1" as="geometry">
            <Array as="points">
              <mxPoint x="721" y="121" />
              <mxPoint x="721" y="-55" />
            </Array>
          </mxGeometry>
        </mxCell>
        <mxCell id="ab1ZRsi_1XtIqZTIRvgs-7" value="SEG3&lt;br&gt;(4 bits)" style="rounded=1;whiteSpace=wrap;html=1;fillColor=#ffcc99;strokeColor=#36393d;" vertex="1" parent="1">
          <mxGeometry x="581" y="91" width="87" height="60" as="geometry" />
        </mxCell>
        <mxCell id="ab1ZRsi_1XtIqZTIRvgs-8" value="NIOS II Processor" style="rounded=1;whiteSpace=wrap;html=1;fillColor=#cdeb8b;strokeColor=#36393d;" vertex="1" parent="1">
          <mxGeometry x="56" y="-89" width="145" height="60" as="geometry" />
        </mxCell>
        <mxCell id="ab1ZRsi_1XtIqZTIRvgs-9" value="Timer_0&lt;br&gt;(Interrupt)" style="rounded=1;whiteSpace=wrap;html=1;fillColor=#ffff88;strokeColor=#36393d;" vertex="1" parent="1">
          <mxGeometry x="240" y="-89" width="145" height="60" as="geometry" />
        </mxCell>
        <mxCell id="ab1ZRsi_1XtIqZTIRvgs-13" value="" style="endArrow=classic;startArrow=classic;html=1;rounded=0;exitX=0.065;exitY=1;exitDx=0;exitDy=0;exitPerimeter=0;entryX=0.456;entryY=0;entryDx=0;entryDy=0;entryPerimeter=0;" edge="1" parent="1">
          <mxGeometry width="50" height="50" relative="1" as="geometry">
            <mxPoint x="99.25500000000004" y="61" as="sourcePoint" />
            <mxPoint x="99.21199999999992" y="91" as="targetPoint" />
          </mxGeometry>
        </mxCell>
        <mxCell id="ab1ZRsi_1XtIqZTIRvgs-14" value="" style="endArrow=classic;startArrow=classic;html=1;rounded=0;exitX=0.065;exitY=1;exitDx=0;exitDy=0;exitPerimeter=0;entryX=0.456;entryY=0;entryDx=0;entryDy=0;entryPerimeter=0;" edge="1" parent="1">
          <mxGeometry width="50" height="50" relative="1" as="geometry">
            <mxPoint x="204.25500000000005" y="61" as="sourcePoint" />
            <mxPoint x="204.21199999999993" y="91" as="targetPoint" />
          </mxGeometry>
        </mxCell>
        <mxCell id="ab1ZRsi_1XtIqZTIRvgs-15" value="" style="endArrow=classic;startArrow=classic;html=1;rounded=0;exitX=0.065;exitY=1;exitDx=0;exitDy=0;exitPerimeter=0;entryX=0.456;entryY=0;entryDx=0;entryDy=0;entryPerimeter=0;" edge="1" parent="1">
          <mxGeometry width="50" height="50" relative="1" as="geometry">
            <mxPoint x="309.25500000000005" y="61" as="sourcePoint" />
            <mxPoint x="309.21199999999993" y="91" as="targetPoint" />
          </mxGeometry>
        </mxCell>
        <mxCell id="ab1ZRsi_1XtIqZTIRvgs-16" value="" style="endArrow=classic;startArrow=classic;html=1;rounded=0;exitX=0.065;exitY=1;exitDx=0;exitDy=0;exitPerimeter=0;entryX=0.456;entryY=0;entryDx=0;entryDy=0;entryPerimeter=0;" edge="1" parent="1">
          <mxGeometry width="50" height="50" relative="1" as="geometry">
            <mxPoint x="414.25500000000005" y="61" as="sourcePoint" />
            <mxPoint x="414.21199999999993" y="91" as="targetPoint" />
          </mxGeometry>
        </mxCell>
        <mxCell id="ab1ZRsi_1XtIqZTIRvgs-17" value="" style="endArrow=classic;startArrow=classic;html=1;rounded=0;exitX=0.065;exitY=1;exitDx=0;exitDy=0;exitPerimeter=0;entryX=0.456;entryY=0;entryDx=0;entryDy=0;entryPerimeter=0;" edge="1" parent="1">
          <mxGeometry width="50" height="50" relative="1" as="geometry">
            <mxPoint x="519.2550000000001" y="61" as="sourcePoint" />
            <mxPoint x="519.212" y="91" as="targetPoint" />
          </mxGeometry>
        </mxCell>
        <mxCell id="ab1ZRsi_1XtIqZTIRvgs-18" value="" style="endArrow=classic;startArrow=classic;html=1;rounded=0;exitX=0.065;exitY=1;exitDx=0;exitDy=0;exitPerimeter=0;entryX=0.456;entryY=0;entryDx=0;entryDy=0;entryPerimeter=0;" edge="1" parent="1">
          <mxGeometry width="50" height="50" relative="1" as="geometry">
            <mxPoint x="624.2550000000001" y="61" as="sourcePoint" />
            <mxPoint x="624.212" y="91" as="targetPoint" />
          </mxGeometry>
        </mxCell>
        <mxCell id="ab1ZRsi_1XtIqZTIRvgs-19" value="" style="endArrow=classic;startArrow=classic;html=1;rounded=0;exitX=0.065;exitY=1;exitDx=0;exitDy=0;exitPerimeter=0;entryX=0.456;entryY=0;entryDx=0;entryDy=0;entryPerimeter=0;" edge="1" parent="1">
          <mxGeometry width="50" height="50" relative="1" as="geometry">
            <mxPoint x="128.2550000000001" y="-29" as="sourcePoint" />
            <mxPoint x="128.212" y="1" as="targetPoint" />
          </mxGeometry>
        </mxCell>
        <mxCell id="ab1ZRsi_1XtIqZTIRvgs-20" value="" style="endArrow=classic;html=1;rounded=0;exitX=0.5;exitY=1;exitDx=0;exitDy=0;" edge="1" parent="1" source="ab1ZRsi_1XtIqZTIRvgs-9">
          <mxGeometry width="50" height="50" relative="1" as="geometry">
            <mxPoint x="279" y="145" as="sourcePoint" />
            <mxPoint x="313" as="targetPoint" />
          </mxGeometry>
        </mxCell>
        <mxCell id="ab1ZRsi_1XtIqZTIRvgs-22" value="&lt;b&gt;&lt;font style=&quot;font-size: 16px;&quot;&gt;QSYS&lt;/font&gt;&lt;/b&gt;" style="text;html=1;align=center;verticalAlign=middle;resizable=0;points=[];autosize=1;" vertex="1" parent="1">
          <mxGeometry x="334.5" y="-153" width="62" height="31" as="geometry" />
        </mxCell>
        <mxCell id="ab1ZRsi_1XtIqZTIRvgs-35" style="edgeStyle=orthogonalEdgeStyle;rounded=0;orthogonalLoop=1;jettySize=auto;html=1;entryX=0;entryY=0.5;entryDx=0;entryDy=0;" edge="1" parent="1" source="ab1ZRsi_1XtIqZTIRvgs-23" target="ab1ZRsi_1XtIqZTIRvgs-33">
          <mxGeometry relative="1" as="geometry" />
        </mxCell>
        <mxCell id="ab1ZRsi_1XtIqZTIRvgs-23" value="BCD_7_SEG" style="rounded=1;whiteSpace=wrap;html=1;fillColor=#a0522d;strokeColor=#6D1F00;fontColor=#ffffff;" vertex="1" parent="1">
          <mxGeometry x="843" y="3" width="120" height="60" as="geometry" />
        </mxCell>
        <mxCell id="ab1ZRsi_1XtIqZTIRvgs-36" style="edgeStyle=orthogonalEdgeStyle;rounded=0;orthogonalLoop=1;jettySize=auto;html=1;entryX=0;entryY=0.5;entryDx=0;entryDy=0;" edge="1" parent="1" source="ab1ZRsi_1XtIqZTIRvgs-24" target="ab1ZRsi_1XtIqZTIRvgs-33">
          <mxGeometry relative="1" as="geometry">
            <Array as="points">
              <mxPoint x="985" y="121" />
              <mxPoint x="985" y="33" />
            </Array>
          </mxGeometry>
        </mxCell>
        <mxCell id="ab1ZRsi_1XtIqZTIRvgs-24" value="BCD_7_SEG" style="rounded=1;whiteSpace=wrap;html=1;fillColor=#a0522d;fontColor=#ffffff;strokeColor=#6D1F00;" vertex="1" parent="1">
          <mxGeometry x="843" y="91" width="120" height="60" as="geometry" />
        </mxCell>
        <mxCell id="ab1ZRsi_1XtIqZTIRvgs-34" style="edgeStyle=orthogonalEdgeStyle;rounded=0;orthogonalLoop=1;jettySize=auto;html=1;entryX=0;entryY=0.5;entryDx=0;entryDy=0;" edge="1" parent="1" source="ab1ZRsi_1XtIqZTIRvgs-27" target="ab1ZRsi_1XtIqZTIRvgs-33">
          <mxGeometry relative="1" as="geometry">
            <Array as="points">
              <mxPoint x="985" y="-55" />
              <mxPoint x="985" y="33" />
            </Array>
          </mxGeometry>
        </mxCell>
        <mxCell id="ab1ZRsi_1XtIqZTIRvgs-40" value="7 bits" style="edgeLabel;html=1;align=center;verticalAlign=middle;resizable=0;points=[];" vertex="1" connectable="0" parent="ab1ZRsi_1XtIqZTIRvgs-34">
          <mxGeometry x="0.5918" y="1" relative="1" as="geometry">
            <mxPoint x="4" y="-10" as="offset" />
          </mxGeometry>
        </mxCell>
        <mxCell id="ab1ZRsi_1XtIqZTIRvgs-27" value="BCD_7_SEG" style="rounded=1;whiteSpace=wrap;html=1;fillColor=#a0522d;strokeColor=#6D1F00;fontColor=#ffffff;" vertex="1" parent="1">
          <mxGeometry x="843" y="-85" width="120" height="60" as="geometry" />
        </mxCell>
        <mxCell id="ab1ZRsi_1XtIqZTIRvgs-31" value="&lt;b&gt;&lt;font style=&quot;font-size: 16px;&quot;&gt;FPGA&lt;/font&gt;&lt;/b&gt;" style="text;html=1;align=center;verticalAlign=middle;resizable=0;points=[];autosize=1;strokeColor=none;fillColor=none;" vertex="1" parent="1">
          <mxGeometry x="1013.5" y="-153" width="62" height="31" as="geometry" />
        </mxCell>
        <mxCell id="ab1ZRsi_1XtIqZTIRvgs-33" value="" style="shape=image;verticalLabelPosition=bottom;labelBackgroundColor=default;verticalAlign=top;aspect=fixed;imageAspect=0;image=data:image/png,iVBORw0KGgoAAAANSUhEUgAAANwAAABnCAYAAABrVyw3AAAgAElEQVR4Aey9dbjUZdf37Z/v8bzv89z3pRI7J3YX3d0gISUgId3dJRaSFioIKAiiWIikmCCCSqOIIN3d7G7We3/WOecwIjGzvcY/nuPS4zx+M7OHmXPWb31Xr3U+1L17VxkzZpQsWrRQsrKy5NixY7J//z45eOgPXYcO/SGHDh2Qw4dZB8064rnq8wNyyPO3I0cOyn/Wf2jwHx64gwcOH5SDB/+QAwf2y0Px8bHSoEE9eeaZp+X06dOyYMECGTVqhHTv0cW7evR4Snr0NKtnz67Ss1dX4Wpf49qrVzfp3at7kFc3/R6+y5/Vu0h78u+z7fcX7TsCpVNgezL3ItD7Efh3WBr4ey0arQLbV9G+I9D7Eej7u0n37k9Jt25PyUMlShSTMmVKyfDhQ+XQoUMyePBgqVatipQqnfinVbpMkthVpmyy97F9rWyZZClXNiVoi88vygpkT0X5/GD/bvb/T+yrqN8R6L/7v+F+BPIbzP1LkTJlUiQlJUkecrkcUrlyRdVqBw4ckLZt24rDESFOV7gulztC7HJHRco9lztC3K7/rP/Q4D88cCcPRLkjJSbaLWDtoehot1SvXlXGjh0tJ06ckA4dOugfAJkFV1S0Q+yKjnF6H9vXuLr/A7j/CJz/CNx78kB0tEvA2kNut1Nq1KgmEyaMk9OnT0nHjk8Kr7miHOLW5ZSoKM+Kdki0BV+UQ6K9K1JieK8zQiLDS0qUK0JiopwS7Y4UZ0SovsbfeE9sNK879D1uZ7gEc0U5I3QPUa5I832OcL2yL/7GnsxeHbf39A8wDRKPPeg+XJ49uA39nJFhwmLPcTEupRmPg0kn/WxHuLgcYbqnGM/9cTnCdS/2u32f273fKc3/7c//xCPmntn7xh7gKbv0Put9DTJfKX/DM4avoJvdE49v85SH75zhiqG7AO6kdOzYQdxul7g8i8cA0Cw0WaTAMHxoNF/MckdIQoxbop0RUvLRf0mMK1KS4qIlPtolESHFJaTYw/q3xNgo7+u8JwoABHGxn7gop8S6Hfr97sgwfcy++BuLfbAvfU2B6fl99ncG4Rob5dTv4zv5fpalnyOspLDYc6nEOH2dx8GkE58NbVwRoUov9sKeeM5eoBPvsc95HM/9jnIYXggCjSyPIRj5Pnu/7JX9QT/unV3ca17n/cFcfAffyfexH2d4iF65T9DI/t3eX2jrdoEd550a7m6As2Djem/A8eF8IV/OF7ARnrPYGCsytIQUf/i/9Mp72Fgwl/1+mIbvZk/2JvneHLtn9qJSMlgMxOei0ZDCkWFeOlgasT9LFx5z89g3+wsmnfhsvg8mtY/5Tr6f1xGeMBj7ZH9ck+KjJSbaGVzAuSMlLtqlQof7xrL3jX2wR+4t+2Tvls/+CVrZ77ffbb/T0tHSkj2x7+goo7juMClvA+7Pms2CzQIuQqLcmGtGu6Hh4qINqLgZlhB8OTcKSZ0cH6Pa7l//+38pgXhfsJf9sdwU9sRe+PEQxxKEPcDUEI7foGZCEAGnJpdHo7AnaMR+LNDYs9V2WAe8h70Gm1aWYbiyJ77XgislIdYLOAtC1YLB1nDuSMEasEDi3vG9LF6DLtxbe3/Zd7DpxOfzPdAGWrAs7fib3Rf0s7TyA3C+Ws0+jlRz0piUBmx3Ag5CwNQQILT4I3rTeK10UryUTUlUYsDcPGax8WAufihgt0xcsWwp3QMmLosbhiCwDJ0UHxN8qe0xxdkbdIE+3Bj2w43jNRicPXNTec5vCCad+GyYhb2w+G5egy5c2St7g4nCSxZTwcme8e3U9AuSgEI4OSNCVCBaCwX+gnfKl07WK8/ZowWeZXJeC9aCVmh9Sytow2vQif3wmH0gMFmuB5uUFmRWsxmwWa2mQLP+mwszJExikEbRTomPdUu0OvkREhvtEhxtB9ojxqWOZTjaBOccc9LH4Q3WY/YUEVZCHBEhkpQQo+Yce3BGhpoAQZRTwkOLa3CHPQbbL4GJ2AvMmpIUrzRjL+wRGiTEReveIpGQGsQgKOAMOq0wdQlwoeGhGXshEGCDAAS60Db8DTrpff4HNBzfhVnJXqATtCOo5MZKcJpAD3vk+Z1BlGDxFN/Dd5vgUqTyD3uANvB8QlyUJMZHewNzcerv3tektEDDhLyLGakgA2jhEgvYXERmjLSLjXEJKz4uSpISY8URGSolSzyikhBmdjrCJDSkmESEl1Rtgh8QrMX3weDhYSUkMiJE4mLd4nKG6554zD75e1hocd0Pj1nBltrQBDpYH8h+J8/Zc0jJR730Yd+8P1g0sp/LHrgnXH1fY58s9gXNEuKjJTEhRq+8L5i04rPhI5blHfbI/WLZ+8r+eK/lPbv/YF2hEffF/nb2wj3iOX9jv8lJcUpH9q37R2jcO2hiQIb5aBdazS6AplrNFWYA50TCEIkxN8sCLiU5XjfB5rhRpVIShNfYBO/lGswFwdkLDAIBWBAF4lim4e+8DyByM7laQgbrynfy+4s9+t/6fdAG4cQ+YB72AXNTxcF+oF8w6WQ/+04G5XX2yR5YPGaxR/YUbFrxXdwrFo/ZnxWUd9sr++We2d8TrKvlC4AEH7EXSxfLQ7wGfaCV0k4V1z2ilFGEob12uU+AxKvZDNDQbrGuUF1uV5gmv6P5cpLgBFLi3BIDQ8c4JTbWLfHxUbqiuJF8PgQK4nI6wyUcTYrGjY/WPYSFlZCQkGL6nP2wt8TEGImNdYkTwRFkDQddE7hJMS4pXvxfnu+Plago6BFp8px6derfIiJChBVMOvHZ3Dful8sVLpGRIeJwhOp+oAt7Jf9qhG+EQFcHjBRkWlk+4mroY/LA7IX9cu9Ydm/cP/YffFo5PDQx380eoAn3iSt75bU4NHO0UyIjQ8WFm3UvDaeAg5hKUE80Un02o9l8gRbnChFWtDtcK1OoOol0hEp4REktDYuNc0tCYoy3VMy3OoWqlWAuytNCQotpaRrfQ+VMyZBHpUTJRyQ+IVpiYl3icIZJXHyULq2igfG9wiY4j/k+vhsasQ/ow76o7uGx3VdoWHHdH/sOJp34bO4Te4FmYeElJCIyRL+T1/gb94392funBRBBphP3AUFtv5+9cb+4QhP2YquhfMsP/yla8Z3wOt/HPtgXe+I59zApOU75Clo+EHAktXXZ8P9dAGfBpoCLMqVg9odb4tgbBEPxWnJKvG4kMSlWr2wqWIsC7AoVy2gRNt/Bd0MM9lS2XIpeH37k/8ijxf5bGQzmQiIFE3Bo0PDwEgo2bpIFH0KA5wCOmwitoFH5CqWlXPlSQaORpT20oRCdKwvacYXZASCCiyu04zX2/U+AjvsBXaCJpQvMzGIvvq9RVM+yvylYV0srKwi4Z/a74X8AhmBgf3bvXsBRUHm7tMvk4dBwWkECyGyuzRMgsdrNgi3eo+HiYg0jc1P4EhibL+UxNwemeaprR5k2fbLMmDFFZswM/nr5leny+huvyMyXpsoLk5+RseNGStNmjZSpYWYIgpZhzzA4BLR+QLBAB+Aw16CNZRpoxLKMzOstWzVTGvEbWP8EvfgOaDVz5lS9T4MG95PmLZqo5oOxoRU0497CWGrqBVvLRUXqd1lg8f2W0a22q1iprLR9oqU8PWmc7j/YtIJGL788XaZNmyyTX3xWnn9hkkyf8aJMema81KtfSwHPPgEe+zb32RM0cUSGSfVqlWX8+DFy+rQP4CzQ7NUTjSRYgt9mAcc13hUqCfHG7Che4mG9KWgLCMLNgSDduneWVauXS2ZWqhQU5MitW3lyS/IDXiL54u8qvJUnBYU5kl+QLdeuX5Lf9/0qzzw7QbUeAGNvSCvAx02E6Q3QjN9KGuTfv/4MLCuU0LiJSTEqnKpWq6CCIi8/UzIyb0p2dnrAdIK2/tKJ9xUW5kpefpa55mVJato1+X7jtzJ12gvSoGEdpRM0g3m4YrGonxcUGt2mO34j4IZOFmzcK54jKHncrn1rmT1nlhw8tE+ystIMb93K+9PvV36D53xevyXwoOHDQGhl38tn5eVlyY0bVyQt/bp+P0K9YaO6aiHgEgC6lFIJEhsXbXw4oig1a1SRiRPGagNqx44dJcrtvK3ZvIAzaQATobzzcZg4nUZqq+TzSGxuDIgfOWqofPX1Wjl79qSCDQAUFObKrSL8L3JL/F23bhXIrVu5UliYIznZaXL92kXZueNnefXVGVKxYhkNlMQDNFqQ8A24qQDRJyIblMfRRqM5nNj/SGxqVzHJI6R6jUryyqvTZcvWTZKWfk1yczM8tCqQWxLIKvSbTtATWhXeylV6FRRkS3ZOmly5ekF+27tb3pz9qrRp20IiHSES5bN39z9AK4IPAA1NoQIx2qGAh15YTpUql5Pnnn9aDh/5Q9LSrkt+frbyGL/FAoMr4DC/7zYQbwOuICBaifB+I6Tg5dy8TFUk0Auh/tLL06R+g9oKOvauwsITHHwIE6pO7eryzKQJ9wecBd5drtH0zt3hzKI9IFDdejXVlDtw8HfJzc1UjYOGKyjMk4JbhQGtwlswhv+rsDBfCguyFXAF+VmSm5Mux44ekCXvLZBaNatIHH4A4FLNRsg7XPgtXjP6Lr/17/5NAaxMi8NtGDgm1ilOorxREVKzVhWZ9fpLsn3HT5KReUPy8qBZrhQqIACFv6swIFoVFCCtM5VWCKjcvAzJyUmXU6eOyutvvCyPt3xMIiIJ8kSpgHCwdy148HE7/s304l6gRRHcaDK0q9ecjYpUUxfracrU5+XCxTOSmZlqAFeY4xXsaG34DQ3OwuLhOcAELPn6NwRzIHxV4LWcjPLIUd5Gy52/cFrenP2a1K5TXf069gzgNLIa5ZCHyBHUqllVnp74AA33AGISPrZ2K8TBTEMCoU47dmonBw/u002q2YLWuZUv+YUFAa2CwgIpLCz0e+Xn50peboYBXUG2Pt69a6u88vI0qVunugIuMqKkJCXG6IolukRI9wG/9e/+PTaWKBZ+EFG3UL3GxRONc0n5CqWkZ6+nZOXKZaptMCuVaW7lS4G/qzBfAqVVTm62alQLOr43Ne2q7Nq9Vbp17yTlyqco4Lgmp8RJSOij4sI/CSKtopxh8sjD/1vNV2IANogDf8FrCHQCFqPHDFfNcvnKecnOSVftA82ystOMSZ6TbmhYmKNX3oNrw99zcjMkPz/Pb56C/3g/Wo3F9wA6tGd6+g3ZuWurjBs/SvdqBQQ4sPnDh0gqVq9WScaPH11kDadE9/TJIY1q1Kyiznaz5o2lWvVKUqt2Nd3Eps0bvOo3OyczIO2GNiy8FZjULgSgBTmSl5spp08dlbVrVshzz06UZk0bqq9Wr25N6d6tkyQnxWpyUpOp9FgFkYlUw3lCyCZlES5VqpaXPn17yGNNG2r0FDN83LiRsn7D13Lp8jnJRyr7CzbP+wKlVUFBvmo4mPHy5XNqSi58d74MGNhb7+fjLZuqHw7jW/OX3xJ0WnmAZSN/AAyriaBSq9bNNYqLzzRs+CDZ8P03qunQZIAAMKiw8mg4NSvRcj4azmi/omk4PhvAAty9v/8iH338vu6D/SEc2rR9XPdJ9BfAETBTwFWtUkHGjhlRZMBBeJJ9CYmxUrFiWek/oI9MnzFFo129eneXBg3rSs1a1eTFKc/Jr3t2yYWLZyUzK10KA/wfn89f/433YVLi1J44fljWrP5cRgwfLI0a1pUypZOkdq1qMnHCGFny3kJp0ri+VnpoZcI/xESYRkhpwEU08IOlizXaRbStStUKCr4JE8fIjz9tlCtXLwZgShqT89atwH04GPLEiSPy7Xdfyltz35DOXTpI5SrllWmIxi15/11p3aaFRuHwrf4JayApKVZNyUce/S/VZgil8RNGy2uzXtLo7RPtWim9CDphWm784Tu5mXpVNRiA4Df5Ag0w2te4aizhVmA+HLS9dStfMrPS1ITcuXOrzJs/W3r17qY+ZeUqFRRsr7wyQzHQsVN7xYUCDqmOhhs7ZmTRAaclP5GaXhgwoJ98//16SUu7KRmZafLDDxtk8uTnpVatGlK1amXp2q2L7N69U/ILCJoUBrxEYCT/Vk5Oply/dknenj9HOndqr6VllFG1ad1Cvvv2Szl75oRcunhW5syeJe3btdbi12BLbTRCQkK0Rm5JUaBF9u3fozfu6LGD8sW6VcrUSHLM8jFjR8h3330VEOBMsAgm8o9OvA8TH/9m8XsLNOpH/o8cJgyNpj1z9oRq2w8/WiKdOrfX6Jub1EYQBRT3goAWPhARPwTAu4vellOnj2lU8PTp47pfpsbZ3NjgIf3l1z07db9EeA2oclTwYkaikfidmIBoQSLABQUEWPynlaFvvly8eE6++eYr6fJUJx28FZ8QK+XLl5XRo0fI119/KcdPHJVTp07Ipk0b5akuHVXLPQQD1qhe+e8BTgMPTunSpZOsX/+tphfy8gj9F8iJE8fk22+/llmzXpWuXbtIw4b1ZeLE8TJv3lvywQdLAlrvv/+eBLLmzZ0jU158Xn9so4b1NP0xeFB/WbbsYzl79pSk3rwuV65clJ9/3iwTxo8R8o/BBpxaA26HPN6ymaxY+Zn88cfvcvPmNcnKTpfUtOs61/O9996VPn16SvnyZaR+gzoycFA/WbJkUUDr/fcXB0SrBQvfltff4B51lpo1q0mlyuVl1OjhsmrV53Ly5DHdG/vbtv1nGTdutBkZEGzz2xWupVqYZJi0gA3hdPXaRcnJydAUALGBxYsXaI6XAAopDELz5C4XLX5Hli37SD7+5AO1IHiOlkZo8NrSD9+T95YslCUB0gq+Xbr0fZk5c7r069dHqlSppAqlXbu2+tqGDd/J2bOnJSMjTVJTb+hMyqFDB0r5cqXkIQppq1WtKKNHDy+yhsO0KJWSKJMmPS25udm68vJQ3YX6pefPn5V9+36X6dOnSs2aaLoqUrdubWnTpmVAq3XrlhLIatiwnpQtU0oqVSwvTRo3lP79+sjaNavk+vWruseM9FS5cuWSnD1zSl579WVx03zpm+wPkvSOjXELlgBCCXpZ4USkkJuEVFyw4G2pV6+OxMZGS6lSSWrW4bf4u1q1bhEQrRo3bqjT2ypWLC/169cVBgR/8cUa3U9WVoZkZ2fq4+PHjypTxcfFSCztVUGiEZ9LlJLIMRE/8qe//rpTo4GpqQioNBN1LMhR/2nuvDc1FI9lAEDr1K2hPh5a8cmOT6imxufDZG/foY10eLKtanJM5NatHw+IVm3atJK2bVurxcboO6be9ejRTWbPflP27t0jqaloVszOQr2/586dkQkTxqgl+RB2ZZXK5WX0qKIDLj7GKc2aNpF58+ZKbi4hV/IeJsBRUFAg2dlZcuXKFXn33YXSvHlzKVu2rCQlJkjZMsxc9HMxn5FVzv9VunSyJCclSI3qVWXE8KGye9cOuXjhnAA0tFtmZrpkZabL0SOHZOqUyeKIDJco7XMKXjAgLtohdevUlKlTX1QL4Nq1K3L58kUhomp8zhyBwT///DNp3ryplCtXRhIT46R0qUT/V+lEDUkHQqvk5ASJinJJo0YN5Pnnn5Xt27eqpYJrYPeWk5MlAA7BGRMTZXr0ggw4ipEbN6kvc956XSORJLbxy1kEeAjFX7x4Vvb8tku1IOYnQR0ihICPKDkAtLNUKVnjNbuMKZocEF+VLVtKypQpI263W8qVKydjxoyRtWvX6NS7c+fOSVoayXfD/wTurl+/Jk9PHKc4+7cETRLi3Dp86MMPPxQAxrLhe/IbPM7JydGpztWrV5ekpCQdGRZw+wT9YgEUPFPlHhsTJU92aCfvvD1P1TvMg0axUjst9YZs37ZFJowf+49ouIRYl7Rt01JNavwGNBpMjXaze+Px8uXLpE6dWpKYGK+Fr4GWmmneJwBa0fcYGRkuTz7ZXpYsWSw3b15XGkEn9oUm5rVfftklTz89Qfskg25+Y1I6wxRIn6/4VI6fOKwgs+F4giL4YBcvndVwfIvHH/OCjZQB4GPxGACSTrB5PKLpJtpqiqAD4qtYt8TFxSngGjRoIMuXL9cjAvLy8iQzM1MX/M7Kzc1VwI0aOUwFpjfxPenp8UU2KRPjoqR3r56yatUq4T8Ax5ej6SwAeT5r1iyJjqZNht6vKA3Fkwf0e3mIBKH8WhrMccjoUSPkm6+/FCS0DShwzc3JkiuXL8qX69bK0CGDJCbKpZ3rwTSTEuPc0vWpzupf+e6FxwgC9giD4yOULp2iQ3nDGJSD5A5kFYFW1NX2799XTUlMSDSuFQJYAxcunFMffejQwbovukmCSStMSjQcpVuklEiR2KoOrjbaeOrUMVm95nPVhADL5uvgEQs4AHUvwPnFSz48x9hIeDg+Pl7at28v+/btk9TUVK+SAWjp6emSkZGh1/Pnz0n/fr21b04BV7dOjb9VaZKcGKNS7+eff1bAAS6QjWbjymbOnj0rzz//vDid9BBRle8OuCpfS7B8fviDCUUHrkNenPy8bN3yk/ohtwrzhZWP/+QB3LJPP5ZePbuL02FnRAaPkZLio2TggL5qMmolDElqj3bjCujQeG+9NVsH8kInHSJKQbifi+qZQGllmCha7+MWD63QalYA8Bh/d/XqldK7d09xOs0EsqACzpNuwg/b/ct2uXnzqkYWbcLaRhsJpMx/e476bfAEGo2Ui108v9d6MA/9Vbg7nRESERGhgOvevbtcunRJsrOhVY5Xu6FsWNevX5fdu3dJl85PamH8Q5gqppaS4uXTorWUKulhPlNXGOfJufCcUDBX69TyOCUpTma/+YYcPnxECgoAGYAje39Lr1evXpWdO3fKiBHDFXBMBItyu3T4KvMh7r9ud5pbRoKZ/Fk0SOKXzX7zdTl4YL/kZGcq0AAbkpsrGm7OnDelfbu2OspM52IUwS+xJWH4aLGeahWuvE7FhH09OSFGzdfvvvtWfVtT5WA0CQCkIICo4IwZU8XJ3JcYt/aEGfP7z6CL0UGozIbxLJ99B0or04TqlpdfnqmnJaHh7EIQsK5evSwLF74jHTq002COzgzx+c4Hgc/Sguvd1t3+Pe05PXt2k+PHj0hWNiF9eIuEM5UeWZpHo7qDHFzNWlUVWA660+ErT2cDOWJiFWhL+IbnKrzgI32N/jrP+gtv3Z56YBpwIwXAhYeHSZkypWXw4EFy8+ZNtegAXEZGpioZWyp24cJF+fqrb+SJtq1VwdwVcMzQi6HhUDugwyWRZk3Pc0dkiKk51B9hokg49MuWfSbXr6dJbm6+rry8AsnPpwzrlgZMVq5cKd27d1PNhunicjKTkjagO2dT3h4uG+MG2OR6mAjM3ArGH9yuJH/QYwqzw8JC5MMPP1DpjLS2TARz40MRsBg/fqwGC4gGxtNrFQAT8V4LLK5oMAsu/DUYy0n5WHyU8LxUUqy8+urLsnv3br1RWAA42DA0e0pLuyFbt/2krSban6c1qXTg/7lPT4cwaY+iRxtrN75n5IV3xoz/tHIx+coRodFRgIVG86UVJu+lSxc0oEJqpyi0QvC4KUKmmxzB7VkWfL50h5a6YqJl4MCBPiYbVSEFur+sLJNDoziAAnkqnGhYDZhW8FaUZ/2Fx2wHib061PJAw5Nbnjhxgty4cV0Bl5dneB+lA+AKCm7J8eOnZOkHn8jjLZr7BzgnBPKEZ2FwJAPPrT9BtX2N6pVk7Zq1kp6eqSDjCzEnzfWWXLx4URYvXiTkKRRsLkadMyU3uIBDahNNI+JHPgSmVs2WD5ObxPDFi+dl8OCBGuJV0y3A3JJlFq4wDBFbyzg8hqkiw4or2HgO4N6eP0+OHj2qNwkf10S0DCMRmNj4w3qtD/TWDGrPWXABRwFEQkKc5kUtrSy9oBWL9A5nCZJ3KiqtLMi4WtpZevleARuCq1zZMjJ27FiN/BmeMnvhPiJAqRxZv/5rPUKNPJxpIA6QVgECzkwhd0qTJo1k2rQpGhTBjeJe5ufbgCGAK5QDBw7JnDnz5LEmje8NOMLDFlgAjgJfrgDOVthbIJYpnSjNmzWWDevXS04OX0pU0lReQyCQjv/2yisvCbkeImFsONrNrMPgAo4hLxzFtW7dWk0BWMbxvZIjIedEgEL3FmBaAKaBeWAWmISrZSYAhjT3BVyZlAT5cOkHavfbAJNJoxhGunrtsqz9YqWWe9mImpkdEiATsa8ArIGE+BipUKGcLFv2yV1phfY9c+aUDBzYX49dKiqtLMisgPJqMqvRPFfoCP3q1qklU6ZM0eCDDcBx/6wwoOcRepFjI+RPtDXYGs4Crn37J9TXJq8L4GxEHv4HB1h4e/bslRdeeFHq16tzb8DpB3puGNosIryEWFMSjWbNS25otaoVpEf3zrJt2zb9Er7I2q8WcCdOHJfRo0dpghATj8/n+J5gA44JYah9ql+Qhr5Ag4G4aSSZIVxcXIxERHAoQ2DtOYDLFRmi0hiJbE0mGOpOwBGhrFguRdasXqXONYDD7idPyX5YRAKpq6RhF0dfw9c6Wya4gKNwgWKENWtW3ZVWaBSqhhBOJOOLQisLNiucrBaDbnZZAPIeTPA2rVvKW2+9pRoOwJHX8r2PRCqXffaRmpNU5eNfBR1wuEQuh/Tt21s+/fRjuXHjmnYQ3OZ7AzawsHXrdhk4cLBUr1bl3oDjw9BgaDltWaGJjjkNkSEKNvsaf2/cqK48M2mc/L73N2/AxAINAuGjUGVCWVdCQqyEhBbXU3lidJpvcDVcxQpl5Ykn2sjPP/+o0T8AZhkbAJID4yjYFi2aqenJ7w401G0BB7hYgA/QwTAADCZzhJdQ5imdHCd1a1WV9d99oxEsAEd0i9yN3deZMyfl1ddmaj3l39Fwyty4AH6uypXKaTAE4YT/BsDsnngOrf74Y5/m6Yicokn+Th7OAssCjat9Ddqxf/K7Pf7H71+6dKkXcL7mN/ujxIuSLVIBKqB0zGFgwinaZWIExAkYhuWlmc71IfDlu8BGhISFl5Sx40bJxh82aFSZ4A75yWwAACAASURBVJepxzR5Z2Na3pKNG3+Qtm2f0DI9ApR3DZpYwFkTkn4xfDY0HRoPDWdNyzatm8vb82fLsaNEKKkq4WYhrfHhCiQ9PU22bdsiLR5vJk5XhBahQph/AnD0+Q0a1F+TtcZ3oxHRRNxwuAkO7Ny5XRo1qm/MXA5dCNCHs4BDGrMIkAA4mIdACczDa4CxUvlS0rJFE/npx01eKwANx9nqlrkpeJ349FitCSSnBK1cRfDhtDM/gOBPnVrVZOjQQfLzFiOc8vLonEZA5Wl08MrVS1p90qpVCwUb0dNAuwV8NRx0sQDzvfK6BRz53aFDBsvq1avVpDSCnPiAsQby83Pkxs0rOl7h71gDZnK4Cc6ZQJ0NRJlzH/4c2HOIIyJMJ78RGaXD2wZvjOa18Qvjy3399ddSt249SUlJvLeGMyqZgZ9Gy5Vi2hWTkzy+HI8BHc+7PvWkfP3VGjWFABrSGq1m1T9RwK+/Xif169fWNnn6mgzggh80ady4nkyZ8rzQbU4bhjYKevqhyOWcPnNcvvl2nbYOkSDF4Q4W4JDgtapXkl7dO8vOHdu89j40Qzpys2Ckw4cPSr/+vbXlBBNJGy3/AcA91qS+TJ/+opZI0QWtfWSeLmloRYU+YzIaN64vkUyNLkJ7jgUcVwssX+DZ1/g7ggyBNXHCONmwYYPHCjDMTK4SAUoKhS4GhvowgkFzcEXw4QIHXKgUK/4veePNV+XsuZOenjt43ghzY/bixxWosKhQoYIkxMfeG3CYDJiNaDRAZdMCNjrJ1fp2Awf0lt/3EuK+LjQx4o9QT8ljmOjIkYOy5P1FmiNhjABdzjBRtJ7lFVyTsmXLpvL2O28JbS+AzQKOyBaVCgydoXK8arWKWpGgeZsAtAIMAmNYjYaktiYlTIPG4z28xrVxg9oyYewI2fvbrwo4bogRTASXCtXs/f33PdKpcwet//s7UcpANVzrVs20VQjhBNigj00sW1rhW9K/h3BC+xZVw/kCzxd8d76ekhgj06dNkR07dqjlZIISJiUA4DIyUuW3vb9oYbN35olOXw7MpAwUcC5HhE4wo3sBDQudjEBnYBWmuPE1MzLS5ZNPPpbk5GSJjY26N+AIpRMcCQ15VEJKPuL15QAhQEPzWZ9u/LiR2iGck83sCPIQpvqdHiMAt2PHFpn50hRlagbQMDRHr4Tsgxyl7NChtaxYuUylM0wDI9kGRIj0y687dDoWTZYIgqIADiYBcACPxxaAXNFqAI2/87dWLZrI66/OkMOHDqjJbU1v01RbqLWLO3ZslZatmuu8Dnw4rAESroEGAsywJ09O0+br7nPt2KGNTlVDONEzxkwTuqEJStA7Bq1mvf6ydu+jSXQisycqy2/0Z90JKEsvaGXpZ9/D5+Hzzpn9phw8eNAbBURAWR+TtqbvN34nI0YO0eAStNKpywHmLBVw3ql0DMjypZtPnpjcsRNf06WzXT759AOd+2J77hDo8D2WCgKBvOXChQskLo5SRoo97uHD2cQ3oLIRSuu3WcDh35ESmDnjRZ2IRdWGta2NagVw+fLFF6tkwMA+2szIHA8Ww3LI/AcbcN27d9LpVxcvnZGc3HTJL8iSwlueEX23cmXT5vUyfsIoqVipjBECMWhe/5jnTgZDi7EsyGAgNB7vs4zV+cm2suzj9+X0qZNeDYfUtoDDp1y//huhq9kGTBRwRZLadzKOLxP99XFPIs3bf5Rz50/qxC4FXGG2p14xVzZtWi/jxo/UkRl20ligGs6XZhZYFmwWcLzH+nTlyiTJ0g/e1zwuQENA0fYFM8Nrl69clI8/Wao5OOhkTMqiCCdzII0B3p10+yvgSicnSK3aVeWLdSuN1XTLNLTaqWDq92ZlaMXOa6+9IlFRbnNs970AR/0hQRJAZn03rmg43+qTenVryLy5bwgTsfI9TjaRGgAHUUD+0qXvSdsnHpcyZZN0SI6dUEUVSLAB179/Lzl67ICkpl6VfNVuCAXUv5nkte7LVdKnb3cpWy5ZAaea109pbZkH5gBkBEYAHJFJnsNQlnl4DkPhv3339VptETLmkfFJbKibpsVVq1ZIo8b1VbMV1Uwyw3o52SjC7zWofy85fuKQ3Lh5WRgghHCydIJm0Kp3H0YIlFUrpSg+nKUH1/sBDnoRZKpYrpSsXrXCGzAhNkBQDv7Cerpw4azMmz9He9sAHCmUQNMChla+Z2XcSbdIieX8N5aT5ZCK5cpIq9bNZP2Gr5SfVJAX5nhmXML7OVposWvXDp12oNFvz3kdd41SEvaMCCvunWZlo5OoRLQe2q18uRR5ou3jsvSDRZ5BPfQomS5v1CpfCuBoDKSBkElPgA2mZjwch0FEu2BM35Arj7kZNpxNiPZ2yPYvpV0+FTDsiYUGpvuAxyNGDNKBpkyiYj4li5mLZhJWpiz77EMVBimlCClTa3e7TtQC6kFXAGejkwAumbMCbHkYYCRd4CnxGti/l+zYulmuXb3sDZpYyQ0TETD5YOkSnQEDAzHpmKuO+3ZhzlPlYxZHI3tp5aHZXU0j8orWROKx5zlg1NednK4aKaNGDJb0DEqUDK2Q1gAOZsIUh1bMpkRwQquiCCcLuDs1v9Vy9u8ADsFVrXJ5TaHYNJNvCgXAkYh/6eVp8vjjTb0CCr4iZWHrHtUc96WVB+y+tAJ0+tzJaaaGXkZYGaDFcEqtdzmkRtVK0qNnF503Y0cKwlfwO4sI77Vrl3XUyLhxY7TQ27gFd5iU5IA6dmyvh99x/BSFtgmxbilZ7F96YCCAo0OcU1Yoo+ndp7usWvWZfgm+kS5s/kIWo/BytdWdBkBMJIImGg0kwqVHNnEc0j3WnUTTImcOeXQoQ9NtTLMowoA9cRRVXGyUhIeHSPHij0h8fIzQcsSPz86mYzlDH9uJTdlZabJk8QJp3LCupDD23B0uToRJkeZ0REo8dIni5MsQ7YTmUD4OE8TXIYWCdTBq1FA5fHi/J8BkwsY2fYKp9NNPP8q0aVOlTt3aEhXtltAwTs3hBKIocbmcf1n3pB2+sZ67h6ViIs0UP2Od6LBbd6QkcaqqHkZZUkolJ8izz0wUZsAgKM39M/cQXxfAvf/BIk1VMM6P0X4xMRwUGZj5bbWaNRl5bh9Ddws08pb4b0+0biE//7RZhRMWgRVOpvY0X44dOyrPPDtJGjZsoGkdpyak/1psbMD354J3K6C5xvJbYgytOAUKa44qJRa85XSES2R4qC5o3qB+XZkwYazs2rVdaQWPkQ9kwfcEUK5duySffLpU+vbrqTxAfOAvPtyZMyekU8d2CjiOm7VHqnLMLCc8chPZAGAhske+aMOGb7wDXkG3tWMZ+sqcQOa9E22zIe7b4VtzfI8tk3nQFbWsp3F6bgzH4gI6fEEWPwbfk6JSFvV+dCZj2pLkppGS5G1OdobuNyszVebPfVOqVCyrQoUbjoYKGHCqKcyRs9CMo3E5GZObpRX+BE7QeLEunT3PBK6srEwNApCDg4lYmEvr1q2TkSNHSu3atSUmJkZCQzkyikMzosXlcgW0CB4QCAqPKKEmoKU/Ao+wPpU1lPBRsFy9elXtEkDLsm774rfnONL+gpBFs+nEaAJgAZrfVoNZDUcwyb4G7XkdzQbgKlcoLX17dZMd27dpgMkXcAgpSqkOHDighc1Vq1ZVOtGBrXxEoCmAxW9Ca/O7TCQ9QhUE9yyKM/ucEVr2R3UNvNW0aRN5/fXXZP/+35VeOjkgK12bY2mIRUAxd2Xu3DekXftWSn944T6AC/ceCG7PLua4XgYOOTi90xmmpTRMmN22/ScNjRIFBGwWcMydoG1i4KC+ymx2kCd2NifFhIQUN8Rxc57cgxeA41jecGbao9XcDtXAdCpwYuj/9//+P0KjZlJSgjJQy5Yt5M03X9e6QEBHZItxBqk3r0lmxk1Bw7056xU9kxlNaSOJ1veCEfxZMAmCKazEo95zw2lbgcAcWqgaxdObxag5TU1os2meVsBb0AG4FStWSP/+/aVOnTraaxUWxnlnLh9mgqEevPg3gCosvLiUDHlETXkqMZgCBuBKhhRTSwDmSU5O1EobhjphptkF6Gh/IQeXnnFDx9IlJEYr8wBkTe9oN4d/dIKWaDBMbvwzBBs1plbI8dgCkHtQp2YVGfY/h4ns2rldBRKAu+3DmQbn3377Tdq1a+cJu3PGXlTAgCPQwkRpBJMFHDTCnNdZmJionHlO/2aUS4EHbzFI6OjRw+pGwVckv5nmfP3GZZ0AfeXKBY3ON3msvn6+nlt3Z9DEajjOc0aDcDA4B7tzUHhyYqxKbY55jYgoqaU0jFBj6hE3BFRbG5Yrn8WsPt6DdMWs5KbTcsLjsuWYCxHISpHSKQlStlSCVmyULZUoZZITpEK5UnqqanxctIKtVKlknQNSu3ZNHXaDXwnzoOVooLx29ZLs37dHR+O1bdVCD2MHcNbcCRxw5jB6DnWHXikJsXrGM4AjMKQdC7EAIFQY58bcxIsXL3i1Gl3BNOiy5s+fL82aNZPSpUtrRzFt/MzOYG5GqVKlAlrly5fWYBCjyfFRmenBjBOupUonaZldfHysAq5mzepqDWAFpKenqpCCZphG586f0nkiDDWFEQGaRpmjjJ/tj1Cy74G2voINsPEaQERwAUQWr2FSNm1cT1atXKHtXYDNRClNczMF8VSgQK/ExESlF6M7uP/26Ch/r6VKJ2iMISmZI9RilU8phPbOQimdop/LwCAEFICjb3DPnl9UkNPGhCmOMOUQlB07t8j8+bO1oNrGB+jBu6eG43DwpLhoZUZMJCR4QmyUmpQwEaeKwkAAiD4kvoCDDDRRWpirQ11omcB+pYqbCcwcVQXDsRh8OmTIAJ1cxfQqf9egAX1k6KC+MmLoABnQp6f07tFV+vTuLgP695aBA/tqMSmj+iAIR3CNGjVCjhw5pEwEUciLkFhm+Guzpo1UiAAUOziIG2+Zw//rbXMSrYsQwH+zpi7mN6YJU5ZJGnNs1i+/7tZyLvy2K1cuy8GDB2Tjxu9l3Dj68hpJ69attRG4R48eajLR5Ni/f7+A1rBhg2TI0P7q3DOglMnO/fr3UouDsXu9e/fQsYatWj2uMxW5B1u3/qxDgmjPAXBXr12STZs26KQrhu5wWo1qNk8+NdAUijXbrVDjOY99wWYBB/0Rri/NnKHNy4wsAHQM6Dl+/Lh88cUX8uyzz0rjxo11denSRaBXn769NQ1FKsrf1X9AL+nbj3/bXRd8239Abw+t+kr//n2Ut+h079mzu47GGzZsiHa/U/yO9aSpgOw0LbJ4Z8FcjZwCZLSmgu1+gIuLdklyfIxK7AhMv0jUPy06YRqcwEyitIVACKeXIP1+2LTekzAl+veR3lyGiQKuz5Z/LCdPHRXMTNrkGfpy6dI5rbKm0trfpf/++iW5cvGM3Lh6UW5cvSQXzp9WBzU19brcuHFVC2w/++xTNZNoB5o0aaLa2khvet/mzHlDGjeqp75oYny0lCuV5PXbMHcCBZ07MlSgEWBDMMVHu8SFL2fP5fac9mJPOK1WvbIs++wToS2IvNuBA/vVPKFSv3btWjJo0ACt77x8+ZKO86OCBwAEujhJ5vr1S3L6zDG5evWCSl6kL8d24UfyuVT/r127Wh57rLGULVtaAJ9tZcIM/+67r3XKMZ3UmKMaMfWc9qOHegQooKxJaZt0SaVEhBZTNwGTEleB1wAg78Wfa93qcXn99de1nYnOavy2t99+W9q2bat+btOmTeWdd97RZl4mw2HFUP0RyLpy9byhUepVSUszPIoPhhLhCn/SgkOZIgD76KOl2gsH6Bi4xOsEnDhQZMHCeTqwFmsC7UZkHtPeRM7/EqU0QRMXAMP5d0UqA2FeYmaiEnXho3gmQmEu4p9xKB3AWrN2hQwfMVilItpv+fJP5NjxQzp62vp4WvWRd7tgF2nqz8JU1VNwOGOO9vq8bPXHODuA6COSBsLs27dXpkyZrNXvMPK77y7QwTgkIdu3a6O+qOYBoxyqyZGymDrW3PFfu0VIlCNMLQFoBegInDgiQlU4MU+ekD5+K+YYNINWDFLFB/jqq3U6Lo+WF7Qy4+l4jUZPTGA16zyBDOtb+Xc1I945/YZjp2zI2kYcMf+ZtIz5CK34XgIBmJhDhgzSAUYbN26QZ56dqLMeMc1wBSjJM5FmcwAJkd1AaAWdrVbj3/FYfWBP4Td/B3D8DU0HMGlA7dmzp3z77bfy0UcfyeTJk+WJJ56QJk2aSKdOnWTJkiU6xMdGMHVkhSeWYPntvletsWVwE5VS5PhYxjzERMQvwy2Bt7CSCJD8+utujQ8gHKEXLU0rVnympjcH16CEsGoIFmJ+PxBwjogQCS3+iDIQpiVSGzOJCCWSGzMJc9J8oIkIUR3Rs1dXYdQ0ZiT9XIztZqKShkr1iKo/Z+RNO4OfI6bp0CYKChEYV52Xrcl2gh8KuHyIkqWMCuiY9jx69Eh1dOlbgjD4dTRa4ofyOxAs0U6ceePEE5Cxjru/jKRM5AjXz+GzsAackXTJR6jPq+kPz1AbhBO+wWOPNdI5HZMmTdDZk3QrPPPMRPnxx01mRHwGoyrwiU3PHpFD/4Bmgh6AiZmNgE2EqKM5nsmWt+GbAWYYCekMyJHWJUsWl0qVKujIQ6ZjN2nSUIUF+wZwMBHMowxUhJwltLWBEugG2AAV/hqd8Gg169cBOLoFnI5IqVmzprzwwgvStWtXqVWrlvq4nTt3lsWLF8uFCxfUtzMJcfP7fc+Fe/Bj2moMjcjPWhrZ4B9CHv8MwCEEoRmWCYKK7vdmzR5TPuvbr5cwpo9ZmLhbBFy08sUT/dRZKvcKmmBqVSxbSiV3iUf+W00m+sSQ2IkJMVpziNTmw7kZmBqYHKhR0I2GIwdBhTlmjEpUT16OH2J8Pds/FADgOIiBBCO5IfIemWkabUQKQRiYCKJgApw8eVzee2+RNqDCRDi8RDoBXFJirEZbESxopNJJcRo98xdkvu8jaYxAQsNhCRA0wQcGcAioOASV55xsbgJaIjk5XspXKCOYl/i2HEyxf/9vanIjXXV58jl0NJvcDhUy/i8kNklrmIlQNYEtZu0zQBV/w0ptJDYaddGihRrEovOdZQfQopXZP/eXRdQTLVe+fCntV/Olhb+PMRVZvB+AAUI0GyC0PpxXE0a7JSUlRWrUqKFAo/K+Q4cOqtkAG90pBJ4wN2lzwhR+MMh8T4e9DTg9Ey8XX9EUbsNTCD0r+KyWY6oa8QCi4Exg5jyBipXKadoEwQTgrAtBZBdfjtz1PYMmJGxhHMxK/BOilIS6bSCARCLo5YMxN5o81kBHcHPqIzeF7D+TcLnJSAzLRDwmzGxC4wFKbczO/GwpxBxCy+VkSF52huRjWvK6p1ia8qjNm3/QuY8ETThAhClTmGyEdhMTYzWqyW9Bw2m+keS0p/yKm+4v4+j7PHk41ZRRTvV9oRUmKwuHGc1gBRT5S3xeZuUjsDi9kyE4+Aqaw1FAmPQKdDKFxLdTLvc1j/5kSpFDgxlvCNOJuRckZmEmJl4BNHxazCN8khEjhql2e/zx5ur/IqBiOGLJo525cs+po9RVhDwctEXLUYmDZkPDWcBxBYRlaCTlEEYPAJmcTZqkW7duwhBhHk+fPl07CMjH2X5CwGbmisBX/i/oSZ0t1gACCuENjRBOTHnmsbUGANqhQweEswNwU5jhyXRsmpwpx0PZIJy41yzohA+n9LpfHo4EM2AjzE0gAG0XH+uWiPCSmvOCiZKS4/TDiUA++9xEeeXVGarZ+FIkNnMEcSI5/5hgB/kJBnnefu26Ou44736v65flJk7s1QtyE8f/2mX9bL7j2tWLcvnyBS2nmTFjmnYmM12qQYN6OgZv9uw31NGtVLGc92iqKExAh0l4c4NZSNZAAMf7neEhalLiw6kf56KXkIbdkhIZGapazQomIoX0UdG8WL1GZT0tc9fubXpkLr1dFAsQWOLIJWhGgOny5fN6nC6BEH8XNCdYcvLUEe3Zgva8RgUEp3Qyig8TlhGBSGnMbfw4/DkG4zA/v2LFcgo4gEaEkhNsMIk5OPLhR/63REaQ5Pc/D2dNSoCGJuMKCK2Qw7SsUDZZQcjnMo6icaOGMnjwYPnggw+kd+/eqt0WLlyoU89u3Lghly9flmvXrmn0kggmc/2hnb+L4Ao8eeHiabl5E169qjTiXtDrRnCPPBtBLhLdzHxh8jSBJs5gQJgzQ3Ts2FFqUlqLj6ASgpYoZcmSjxjhey+TEvMRiQ3YMJMAH42ZmEhEW5KS4gSfDU3GABe0GWcs0wrTtVsnDZgQ/icPR8SS9/A3AipffrVGfbu1a1eqs4nD6c/iEI51a1fKF6uXy+oVn8rqz1nLZNXKz2TF55/K0g/ekxnTp+qQUkYmkB5gfv8PP3wvx44dEeoU8ev69++tvhUaDsBFM/nZkw+yTBAIE2k9ozNCrQDAhu+LhqPUjMocEp6YGd17dBHCxRzcRwvMlq2bteyNcD3+Lqe9cKAftFrFb1zzuT6GZjwOdFFyt3rNcvnyq9VK++Wff6J05/P4npkzp0mfPr30wBBGqpMWWLFiueaWYCyOWyJ9gK9um4bRyJiYpAYwK+18Un/pZYEGwKA5UUkbueQzeIz24++PNaorLzw7QdauWS2///67nDx5UkeKP/3009KqVSvh+vnnn+ti4vfatWtlzZo1hpfWrlBe47f6s6j6X7OWz/pEA3+MVec+KK9+sUqDSC+9NEPjAPAWQEOYI9jhKcZ0bN68Uc/U4/BRaw1QwQKtSKw/IPFt/BF8E4BHFYXbaYIA+HBPPNFKpTRaDAmsvkF+ltYJcr5Yhw5tpHJlZmS00VzcsGEDZcCA3jJ06ACtJ+S0Sh6Ti/N/DZSRwwdrDo7K9sH9e8uQgf1k+LBBMmhgX+nR/Sk1G5mNT4AEjca5XKQDCDpgf+PbvfPOPM3B6YmUDqJmZllm4OovA+n7PEXAibFu1W6+gENAcURRy5bNZNHiBbJv/2/qj9FRTch5+/aftHmyTZsW0r59a6XV8OGDpV8/ky+jz2vIkP6aWiG9EsiiwmfosAEydtwIGTykn+aVhgwdoCd08vmMeCNXyQk9mJOffPKRSnFMTaJxDDNasGCeCk8YiIW7YMFmzCT/tRu0grYAimHCgC0yvIQ2sTK7BPBiLWBqtm7ZVGZOnyw/blovVy5TJJCn9/HIkcPy6aefSNsn2ujIxX79yZH11VTK0GFDZPCQQTJ48AAZOqR/QIt8JTQaOKiP5t6g89BhA9ViGzZ8sApxTG3KBUk19erVQ8H200+bNYACj5Fq2bz5ey30MHRiYnO4d9kI/5+6BWylCRIa7YZ/Q9TNmkkwULmyKTJ79iwvyHDk1SfjIPacdEm9eUWmvPisVK9WUSv3KQ6lzYfCWZZ9ToGobwGpP48TPcNUMU0Ix5MvLFs6WTUvPwjn9dlnJ8mOHds0H2McaBOUIcrHjaPgdNrUF6RsGUwXurVvT0X2OuoBmEnWJIKZWNBMxzQQ+XRHSsuWzXVEIIEJG+Y3AR7OH8+ULT9vkqlTntdTWU3BsVNKFH9YTRCmjhFNDWeWTAC1gbxXq/ljHEKxsfW38SvQtvEJMVKixKM6RY0huByQSZ0p+4NOBFTwV7Zt+1kHGqHl8Ndv78EUAgdaS6nDefDbMMMZieC58tiuihVK64yco0cPaMCHoA9BN/xQAj7Hjx9Wa4CIIHuiBIvfhflGQEp95gDvX2joo1rahRnIb4VGmM+a6HdFSFJSvNaeUkSOOcmBo9AI/oKnWASijh49qMl2Gprx5UgF+ZX41uLbaJeCDT+OCBxMhHZjMM/ChfM07GyijZ5ZIUQfOc0kK1WmT3tBAQfQqJK3A4cAFUCzfXb+gMz3PXQKYHbA5MrYLrMnBEGZ0snSrVsXldQwN1IHBiL1YBmd68aN62XUyKEaONGgidOUFiGB/w7g+PeYlwgoX8B17vykBnBIyNp9WKee88ePHzsk7y95Vzj22Ra42iSpt2LdM0zoNsPfvzjXAIywdLiWKmEGwpQwKEzJdGJaWDp1elLNSAJNMA/7A3A8RtP9sGmD5lfx12Ee/i2ajdxSUUxKAMf9pIXqzmUnwtWuVVVbvk6fPuYFHFFaDb4V5sjJk0fV76Vk0AajoAu+kwIuALCpheJRCAgofhM04/OgoaW3i6KGhDiNeK9c+blaAtCIBfBYtKThVpEaI9dq9hZm6IQAVAVzj8S3+mu0x0SGaeAEwKH1OBu7RfMm8tFH73trJ22Yn14zood5uRkydcpzUhWU4xh7lgUOgLPLvubvlRuGFjERRQO6WMzeKIcy7AsvPCv2IAqIAfMAOEsYnq/+nxM9u3frrMlv7YAg3eGpmCgK4OxNUyHAfBMP4BACaLgB/fvosbQEhizgiNoCNvKKp04elaUfLNazw6zZYa9oPArG1fwNQMPBLPhdMBC1gYAEwAA6/kYyntmSmJKMviMBDm3Yn90j6ZWvvv5CS/fw3fi3AJeoG4CLZBhUgAEmaATQ7P32fQzgmA7XvFkjWbVymVy6dFb7FzUq60kpIahOnDyigONQRTQRoFAhoklmOlACM3O5f/Hxbv1dFDAbuhmNCWjcFKFHhmklDpPDaSrFPUGrWb6CVuRN9//xmx7HTBmcFXLcA+j1QMABMrQbCz+O3BKzC7t17SRr1qzwdgWoeeTT3JmTnSbPPzdRG1StJgNgmA++BLZED+RqAWccaxNhhDnRCBxIsmjRAq3ghmkgBkQBcBCIBVO9t3ihPNakgZqhbgfNl0ZrQviiAk5NSQUbxd6h3gATgoCjjEmSojH4fvaUm8Nks0wFHKd6vvrKDD07jEAO/wYzkignj216wUpbf66ACkmN1Lb9azASTABzwkSYR0QkrY9rAcf+LDN9/vkyDfagPazZxufdrp4w7TVW6Dzoip8GH1grB36wwpdhVeXKJkuXzu1l4/ffoudapgAAIABJREFUaLQQIa7VHp7mTsB37NghjYhzkimAs5qI36a/O9C0DgBVupjGaNXcWFKMOIx16WfSwkSBN8d0UYrnSyu0G4DLyEwVos2cqGojldaH8wtw6rd5fDjMNzQcZ4Fjjn3//TfednIApwlZDijPSpVrVy/I2DHDJVmbOm+bD9Zmh8h2BQI23ssNRRtpcpQJuwDGEzkFcDj+p0+f9IIN4AE4CMLi+ZtvvKaCQ7UIgoRQvufo3KICzmhc0gvGt1QLIcal0dAZ06doNQc3xnuj8k1ymwQtM1+GDO6vqQpbWOCIxL8xv43HLNNEea/myr++bk6OMeYfYGPBQDAmGo6hvIT/ARd7sxaBBRy04pxwjjg25pHRcPgmfwdw8IEFnC/4wsOK6xkVw4YOkN27tuqcnLsBjqli4yeM1mZYhIfV2ggiBV+AGg6tS6e/MSVtntEIJj5PNXu0WytKJk9+XgFnhbelHbx17fplPcOOnLQRaqbHzoLOWi13DZrAMFo/6SlVQsvR0s85cjOmv6iTuKwfYgFHZQMBkxPHD8ngQX3VlARYENUungOcIgPOE5iAwQnn4zNhcvFj6tSuLmvXrvLWIUIMGJwFgYi8QZgpU543JpqOJTD1j3rsk/pgt3NCD5LWvn9HwxHIUe2GIPBU5RCYmTt3tjI0DGz3Y6oXTAXJwgXzpE3rFvo7+C2kE2yBASalJuh1ZISnjtXWsz7gqh3GnmZRfDfrgxnzK0o4y5smSvZlaePr77LXefPm6HgMy9gwNTk4AIf5FahJiUADcFg+LF/whYUWkyaN68m0qc/LoUP7NB5g5s/YyhtTFvjb3t2qdStULKO/SbWaBxjsryhBE6en8dQkqQ3YAJqa4fj4cTGa13377XmaXrLxAXgMQQVfnTt3WlMJdevVVOBjXbCglZqV6r/ew4dDm5ESsFqOFhZm7jdqWFdgkP379/zJpLQa7srlc/LrL9ulT+9uSlCrwSzQrGTjav8WyBWTEkaHwQ3gTNAEzdCkcX2NHlHnBgF8AQdRIBIJTEw8rQChQ9x7VJb5XKQdyxdM/j62kVNMcUxVAh4IgSXvvatMbU1cA7p89eGo/Hjj9Ve0ewGwYUICMq5oODSbDZxYCenPFZByk1lIWMtIRPQAH0GQFi2aaukbgIM2gA7AsT9eg36vvfay0PEBU8N8fBYaEiaKjIQnilAk4AM4Ox8HfkDDMSNn4YK5cvrUUVNNRFOzp5zNBk127tyq7V6Yk4ACjcueeIxgQND4e894HzwV7TO+kagi1oDVbkwLZ8p0t25PeQNMCHBLI+iEhXD02CGdccqRWd69eExVPvO+tZQ2Smm1nAUcPWQrVyyTEycOa7mW9d9MtDJHzjLJ+Ou1aodDxDuBdbfX/AYcBPXcYK9JyUCcaKdGHNu3ay27d+9QXwnmhiCWeXhM0AL7e+jQgV7/CMCZaGfRQKY3zANSa44ipAjGlEpJkA7t28jKFcx8MaF2KwQohgVsdJ6/OPlZNXExjQGYFlU7mf1pSsN4nfXXYUtGYNztdawRJD0A4WbDkDAjoW4AV7ZcivZ1cYwXtIKBuAI4FgxEO9CUKS9omNwCzjDSbakdaOLb14eDFwCcFcY87tXzKVmzerlcunjGG4DTwuuCbC0JpCyQXJc9eJHfBPD4fYAEDcfnBgq4KMY2ehb0QrgYwWLMVDq9+/XroyWDRJut8ISvWDxnIO1bc9/Q0SOWTgg6tBxDsxCCCMv7mpRWy1nAtW7VXDb9sF4bTE2Lh6n5s4A7cni/LHlvgXDegCWkBZTvcx77Prfvud9V/41nBoYWvnpqIWFMkst9+vSQw4cZsGqIYMEGMXhMsSk1cL16ddcfD1Ax/TSqWEStZgFnwYZpagFXsUIZGTF8sGzY8K3uyddPImiSkX5Dbt64IqNHDfNWvmjOjY76cNN7iKbTG+Wp19RosVcr+8xLvMtrDC8iOonpB2BgRpuzqly5vIwdO1qjp1gD0Awa2UWAh4lYEyaOVQ1iAWe03G3mtBaHvwwO4HzvOyal7/ORIwbL9m0/yo3rl9SkJOINb8FrFFfQy7fuy9WqddkL2o0ksxUmyuhF8OHYB0ADHMbnivBqTn47gBs+fKiWdiGI7ga4LVt+lKnTXtB6SvYBvfF9/QIcjMjNBXBoOa0VdEfKkx3ayu97f9F6vjsBRx8R5iRJ74YNaqt9riDxENnXj7OP7wewO/9mAYc5yQhsAh3k0WBScoPjxo6UEyeOeiUODG6ZHIY6fvyoOS63fVuv2Ybpp3nGAG+SL4NhglrNy550X44w3dPsN1+TX3bvUBOXm2QZmxmeaanXNCVAxzoAA1iYxpiQmJMIBLoaeN2kL+4PsDvByHh6/C2q+62JhNRm0aXAgCWKvEkJWKFkAUdFDkXNQ4YOVMaB6ewyzOQJLgQ6teuOPBx8wH1FKyXER8mLk5+RkycOS2bGDdVwpJnQcPBaZlaqHDl6QKhkYvQB+yAaaBPMzMkBhPCN7/150GPuX3h4cS2/gl42sMTnAmR+Nz4cjcwUe2MpYX5jrVjhDp998806GTV6mAoD9sYyn0VK5gEmJf4akh+wsWBK0gJPdXlSjh01o7BNxb8Z9kq4lqDJ1i2bZMTwQVKzRmU1FyCoBY4vcS0Q7d/8uVrAQUA6s2FszEH22vSxhlo9cub0SW/UzYLNMjr5JppS8V1gatQ7fWsIE9VMmCNF8OEs4BAEjMnTUXmOMPV3P1v2kRw69IdWcfgyNXm4y5fOyU8/bpTOndp7NRr7ImhifTiAxz41kX4XLXYnyHyfk/9EutK7hi8H0GwtZPUaVWT+/Le0bhLmgVaWgQAdPXKUxfXp09OrHWE+ltcvLMqYPPwlAkyeYJrlAwIopUslyKzXZqp2I7UE2GjD0lmigC4vS8etUxgP4NAgmJPsCYEC4ACHBmQCAB33Dw2HZrMpD8ACvfQ3RzkkMTFeeQfNj7+LCW7pBeh4vnLVci3Nw1wH+JjumJQsaHZPH65jx3Y6IgBGjPUBHA2oPXs8JWfPnvSeRKORSpr3bpFxz5QfNn4r3bt1ksqVyno1nNrU5H48EUoboeJ1f4Bm36M3yTOjP54f4gl64N/gv82Z/bqcP39GpbV1aiEGzMT1l192aY1lgwZ1NSKI5qAfzhFuOoxjGYrjBRw+nV0eiempmfQOVfU89wWcajgKBpzhWiDww8bv5OyZk1omZfw3G5TIlRPHD8viRe9ohJLfhpZDw1HOBVjCQovLIw//HwUcnRpaJO0Z+PrAx05z8hG+gy/YKFuCiXDsP/30Ix0XAG0wKy3NAByV8Yxe6Nq1858CAOSrvIDjHqiGs3T681WDETYo4bnqaHQPL/gKY36vLenKz8sUFi1XgM03Gr75x++1M4XOCwCBhgNkmMrMjNHXMKXv+N4HPed3od1Y9rP4XGsWMpiIoUHWAoBmFnBcoR8j1zt36aDdFA4abeFVO+9Szw03Uea/+HAKOFCPjawzKJ1qtlWqVF5Gjx5hjqXyRGZ0RLdGtiifytWACaFdpBVMxIEgmAqGgYrpSTwWgIECDuDxb8iZYALwnP2Rn6IS/8OP3lfJjCaBAFxZhpHyZMuWzVp0XbFiGdUgBCgAhgnpMz0qVOKiAReMc6+zwu6cyR8pVLokUPFAJE8POWGMYLi0+58C2/3796p2M31a+JbmCGaY6I/9v8mzz4yX+vVqKa2gEYBDIBEiJ4jAaySEWZj5gSyq05HaNhgAM+LvYOY0aFhXvvnmS603hXlsWsAwVL6cOHFEFi9eIPACvqCO+kNrREVKRFgxcTlDJCmBke7Qi+Q3y9KMqznU0ApLe4VGuidlZlN9YbspmjSpLx9+uMRzGAbF5lmSmWm6+TErodma1Z/L4MH9pCwtPITt6a2Lj9LmTn1OdY3naGz7nQ+8ah4OjebQqhy0pW0eNVo0RurWrSXz589VwMFTRngWSIGHv7KzMmTxogXyePMmGqF2RoRqtzqRa3KzGlVXBXOXoAkzGUA3C2nIjWI1bFRf56RjxzI3wp78AjOZTttsWblymaQkMwHZnBEOw/CDAR+L5xaAgMe+7tcVgMUZJ5RAABKEPbI3Zqds+P4buX79ioLMmpNcFXwFObJ+w9d6EAXg0IAJv8+j0aKI5Llur9vMA/h8NdydfhSngFpTK9wTOo/Q4uAePbpp1zmTuQzgzMBXM+otW7Zt3SydOj6h1oBlCuigDrznpFmKBwCeHTXvF52sz6yOu/G1YBx7PwFc8+ZNZPv2Leq/IZBsWsAIqRwtUXrp5Wne/CDayOU5IcgZUVxplRiHu0Fhe4iuP4PuTsAZ6Y6JTKsKQgAGZ1+Yb5iI9Amu+3KNWiT2vjHr0XSoG9Pyw6WL5akuHbwCHVpZflKz0OMTBkIn3osQZ0+YlOzHaCdjUlKmRQfKhx9yUo4ZsQDgbDQ3J5uqoWyZO+cNqV29irc3snRSvJ7rEO3g3ALSD/fScJ3aKSEAG7YoDI1d2rZtK1WrtG2Ys9/M0aqML2POYmZGqkCQYo/+lzINkhpGKVH8X3rsFWcRVKlcTst30Hy+QPSXQNS80bIO8JBCLMykGTOnyB9/7JWbqZxRZxLeXO2N46YxXwVHGI1IMIIF4MJDHpG4aELJTCZjpgkmppXWDwYcI7AfLfbfSis+Hz+pcuUKOiOEqpfMzAxtjrRDbhgJkJ5+Qw+xpN6UE4igVckSD+tCm3EAJoLLmt+B0gqA4KijTaiA5x4COMwlmLx16xbyx4F9yih0BeCbeFdWmpYoTZg4Rpo2bahnA/L9jIGnQTc+hlpWyuBCJMZlwAbo/AEcGik0rJgyt/FtTHCB6noATncC+9AJ2TmMh6AWlvuZq/7cuwvnSds2LbTm0lgERrBbPiNQRD2mv/xk30ceDsAhyBEE3EPr7zI/dfhwMxKPWTmAC0tAAUfJoOfs+FdfnqkT4Ih5MCEBwJVOjJVEamqpQLpXWgANZ1HOzUEi4px2eaqjRvlILHPoInMkkNbMCuTxhfNnZN7cN9X85AahRdBiJp9EdQHazuReTK1gaIA+HCMdTAU8oIOBrJbjZp04eVQT2xCFBDdmkjUrL10+r0lJwIm5Z/dE4hYfLCGWDgQG3AQOuGi3sQCgFQtBVa9+bXnxxRfU/AZwDHkFcJiU0IyRal99uUZBT6DEWALQJtQbQEEb4GdCQxY09X+ZihCYGuBBJ43gRTv0ZFV65ezUYJgbJrK0Ytry9h0/a+8dlUXcNzVrmUmpYxA4WpnC9hIS7SwZmIbT6J0RBjA4fAV/0flOs/Ivv+5UwLEf7h8R1Ix0Rh2kappg5owpWv5lLSibNmGPVtPxmv908tBU750xdwEcAop7Cd1QNkQomWKGhsMEt4DDMkhLvSEZ6akydfJzOpYEsBHM06Ztj3bD77+vhgNw2LLWpOTLBwzoq5l2ExbNUqmNqQQDMSt//77fZObMqTo0h1o9wKURNoCn/XDhEhZWQtvNIyJCNPSth+dBIH+WmzySGUdt29ctURhZcFVnLV5TP863PQcC7f9jrzbMMh5AzZrwklrZAOBIoiOxARzajWsgGi6WOSmemY3QjT1xDvbcuXO0OTEnhwPpiWyZycHQ68b1K7L8s4+1TQYa4duo406CG8sgIkSnWyMYSGBrmZY/NPK8B6bDdMYSQKMYupm8VeMm9bXpFcDBQHeaSSTlf96ySTv3ydexB/UpPTNGkuJdquUMrQIDnFbM29OTnGGqRQAcXdJ0WR85elDNW8AP4Mh5paVeN6MQ/yeY8vTEsaaT3uO7W6HEoKYUjsX2lML5xU9eeprcm6+ZizBngYEKFctqPyNdAvCS78J3u3njmh4/NmnCOO0hpY+UgGNIsYfFGVZCMCnj9Nz4+5iUFmh8KUzEddIzE+Tnn3/0RNxuBwAwkc6fP6dDQznco1w50wtE8x6hWv49koxyItQ0kSX7OCDC0MelZTyEgY0fwM3iNRx8gjYQgxuFmcRNs1Glr79ZJ6MpqE6J1xF/JuwepqVJ5NAc4cUUaMneQID/JqXbyeEWpvUFuvH7SK4vX75MO8wJLKHdML1ZzN3YtXu7NnYiAKAPpnFIyKOCv1CtWiW9Ml7PaiUkbqC0QlJjUgI4IovsjUUx8vQZU2Tv73u80VMb7sZMQsN9v/Fbnc8BExMtxdzF/DbpGBNUio2i0yI0IA2nQtinvpPfDp9wnBmH03OE8G03wESXaewkjUJp15gxI/R+w0+4BqoU9NASAw5oH09trRdMDxbmCEhz/3CfHF5rACHK57E3ZogyPMgKJ/aY50kNoN0OHfxDRg0fqrlr211jctgOBRuT3e6r4bgxMDMb4UexqRkzp8nevXtU6hA0gYmQ3DARw1zWfblWBg3qLw7O0Yp1S1wcRHHoySNORsjFYQZG6iES9u+cTBLIstUTmJbkmCAK9j8zOpi2hKlmpTamkpokGWny2fJPdMSAAjbaRgOdCjjMJF+/JFANZwFnzTaE05gxI7UvD/MWDYd2I7Bkzzcj4fzcc5PMb49yKp3MQfVuPWbL4cAaKCmhSMgYt8TGkW8KkFaMoYt1mrIiDVKYcXfMnGE6MC1DWCsIJWvCIaxoM6Gao1r1SiqcCNpgUnLOXamkGIkGvE5SRoEDzkYpbfQUHgN0jRrX0zkvRCbZi811IUARBkzUvnzlgs5YcZCbxGpSa4AThTgtKUIX52jHkmMNgFbR0S5JTEIRuDVniaZjX9xHBF2TxxrKl1+uFZp02QuCvNDb5Z0vV69cku++/Vr69uquVUZ2FhBT79BsBEziqZFFCNyttAsfDsDxZTARgOPLGRHOrEdTmWBMSYAG4GAmxovTQfzww/+t4+iSU5J0ki+9RGGccxbtknANMDyiR/7Y00gom/F7aeafKBK9XQ4d0YeJhDmCBERCwjRIIMwRGB6mWrLkXTWREBzcdMLv2oWOT0GQIolz8BwSEfpIwEETCzg+G+ahXnHy5OfUR+K7MbcZ5cYCeFgEa9aslkGDB0hIaEk9By4+gcMqo5Uu0KpEiWK6eAydaBb1m0YeeiJcAJxlbu4nEpt5HWq+HTmoNIKpCTAhqLi3qWnXdegQwgyTzfqQHCrJvBFrehuzO7CgidVw7Akew9LB6mBsIDNMzTlrCCYT+YO5uY+Umf32269aQGyPjIJecfGxepoNPEZ/HzTipJtAaAV9U1ISNBhHVQ7A47dzH7mfzVs8ptPNiF0AOBuhxBqAdmfPnJL3lyyWzk+291Zm6eE38TFqTmJSJnBW3/0AxxcBNojCAnQ0d8JAEIEopY264ccBvNffmCUNGtWXEiHFJZySKydqHl/QPI6OJUnp0L+5kOrRLnGiAQNYAB+wlSj5sO6LkXzt2reWdetWa/4GpkE62jC3DQa8/c5cfR9MaHNl6lh7yrLwS/DjCHlr9C2AKCXDlaxzjUlIxHLK1Bc0ecx+oBV+G9oNi+DixYvy2qxXpWmzx6R4CWZpYO65JSk5QeIT6M52K21i42MkIYlZIpzxFhoQnbAoiEhan5fAiTV7GY7zzbfr5MoV5uHf9uHMfc3T3BcTvgAowomxGhpV9ggncmxot6JEKfFT0Sa4BOyJgAQHnDDciLMnspk16ql6sVFmnh89dljee3+xtHmitWp7eMfyD/zmcDK2MVHpFBoeEjCtMGtthJLzABAC1rqr36COdyI2e7IBEwAHzU6eOCZvz58r7Z9orVVZVPsQNMGPc4QWF3dEyIM1HIxtVSqE5/HixQvVJ+EmWZMSqc3hCsx859SSlq0fl569e8iQYYNl1JiRMnzkMBk6fIg+5zpi1HB9nSt/C2wNlRGjhsrwEYNk0OC+espJhyfbaoRr2rTJsnPXNo1Osj8LNAjC4xcmP6uOuZrJnAUQaXqy8Euc5PTCjA9ngRdI0MTN8cxE75I46ihOpeKrr76kEUrMWvJw1vzet2+ffPTxR9KrTy9p0bK59O3fRwYNGSjDRgxVWkCz0WNHycjRI2TMuNEybsJYpd/goYMCohWfx2S0ESMH69QuTs+hMRJBygDa12a9rGkBfF1fBoehTp0+Lhy+CK3whQAc1gBpgbCSpFBoAqbbngBTYEETXAJGPgA4Ss7QuAwPHjN2hGo4BtSyB7u4l0eOHpaPP/1IunTtLB06tpeu3Z+SAYP6K0/xO+Elu+AxViB8xWcMYsrXsAEybvxIGT9hlJZoYVJzT6nKmTXrFdm27XbeEr7K9/hxx48dkTffmCWtWjTTckiAhh8H6PDdNAenx2vfo1sAk9KaH2qCadOhW956603vUUakBTAlOTaIoZwtW7ZUiT12/BjZsu1nOXr8iFy8fEHOnDutjw8c/EP27vtNjhw7LGfPn9HXDh05qM95zZ+FlDt+8oicOHlYjh0/KJs2r9fcDRoYs5JjoCi4hYmQQtw0HpML697jKf1NvJeKBMLthJEp+eH0lkf/9b/EFVlCKpZLEhK6gQDO5TD5LUDH55PEpY+MWZiYIenpaarZjh07puO5OYCiWfOmyhS/798rBw8f0PXLnt2y/8A+L214HRpBS5Y/NLLv4f0nTx+Ts+dOyMVLZ+Snn39QWhGkIXDFmdiUdrFHzCLrx2G+ffvdVxpgIjBBdFRbgwiRMwi2xMOas8TndTtKBAw4wvdEmNFuBHMox8IH5zyKffv3SHq6uXcIAe4dpuTSD99XwZRcKkmF9ecrl8vO3TsE2kGfS1cuysnTJ+TX336RE6eOy+mzpwKjlYevGJh76vRRHQSEBYDAgq9odOXsB+pwMWttyokIZXraTfl97x557tlJ0qBubeGkYBZg01xcYpwkxRK1NP2k9/XhML9QtRAF4FE5vmrVCm1zuXTpomzdulWee+456dOnj673P1giMA2AunbjqqRnpkmWOuHpkpaBb3BTMij+JIrI83TznNf8XVSMM7r7ZqqZlrtp8waVRkx/frxlMz2AcefO7arquWm///6bThYmL8ZvsH4JkTeSnkwBIy1gQVaUPFyUJ0pphRPAI0q5evVK9SEpCti+fbueZWZpteT992TXLzvl8tVLcjP1hqRnpOmVxzfTbih9bqRel6vXrkgauagAaGTea04tTc+4LplZN+XatYta2sacyzp1a+gMfGYrfvrpxx6fnHPqLukxWZyYQ9eyBjQ8TbBa9+ipyrFFAgioQPNwNmiCb2lyhCZ6Sn/bq6/N1H5GBAA+HMOgps+YKj16dlPAzX9nnmzbsVXOXzgnN25elyvXLqtQh5cs/fRxZloR6HVT6US+j7MwOISS4cYcl83Q44TEOB38OnLkcBXq1pcjcrnkvUVSp3ZNSYwzx7vZ4cmAzhVeUpPe9/fhOrbXKA9haU46ZSYiJiUnqUx6eoJOmGVSMsWcQ4cMlklPT5TFixfJocMHJCs7Q1dObpbk2bA8tZa+C+2jp2vm//l13/fc7bH2a5kQMe0amB8UUq9c+Zkexli7VjVp26alzH7jNdm5Y6ts3fKjdqd3aNdGqznc7nCtmgBoHF2sLS+AkIJh2n0Y503FOWVVtFZ4l2/95J2lXaYJFLCp9vRUc9StW1MmPTNRKyeg1YwZ04VBpZOeeVreXbRQDh6CVpmSjXmOX+D5vQWFeZJfQI+hGVXH36GV/bvfV9XwuZKnRy2RrM2VS5fOy7p1q6Rfv55SsWJZqVmjqowfN1o2b/pedmzfotPMaIZt0byxJFCdorlTzG87nct0Q2hdIFaCFpLbOkrf3OV9aim1/jFEaPgEcLZOE9OSoUDvvP2WHpi5fv03Mnv26xr1njBxnLy72NAsNe2GocetAsnJzVZg5eZlC3RTq4YUQqD0Ulqb04Wo1yQtwhkPNAgzAbtz5w5SKiVREuJipHq1yvLmG6/Kpo3r5cihP+SDJYukX99eWuwfEVpS6yiTE2IlPsatR5aFlSwmzgjOTIjWbpu/aDjMr44dO0hUlFMrDLR4mRAribtop9SrW1OmT5ssPbp3kQb1a+t4gK1bNuu52USYcCSDtayZiAS0DqvmQvKzZcE7c7UdhtxHy+ZN5Nmnx8pozqhjAI43AGIYQWsjvZX/dwLIobkU3zaXBz52mxQK/hELcxztgJaYPuNFHWNepWoFmT1nlp55zqEaJJeDRSffz4VW+LCY1+SzYKL582ZLowZ1JSUxVh5rWE/GjR4mE8eNlM5PtikCrTx1prbe9AFXfGa0pS3OtnW3tsSq61NPaosO9ZKdO7WTiRNGy6+/7lI/0/qa1gT2/Z1/5zF8ZYNH9rHWcOZmyvlzp2TNquXSpGE9ndDNtOjaNSrLwH49ZfHCedKxfWuJj3EJJ0yFlHhUiwTweRnJQDSVqDznqBNltsUgf+oWsIAjf0ZImOAClQa2hIbWEUbMjRwxRI/t3b1rm+n+5gQbJPMdmfh/93OITiAC34hIJEyEVPpl93Z5Y9bLUqdmNalUvrTUr1NdalStoEfWBhtw1MhhARAVxATHpAR0DAMlUEFhNeegUy6FqUK+0ADgz1ULwaAVNKKZFNBZwCEgX5o5VWpWrSSlk+OVTnVrVZXKFUoFHXAq7CgO8BS3M8fEVvejSakhbdyorjC5a8E7b8mPm7+XCxfO6v659zaS6ksrQMLyfS3Qx9CHxefwPeQDOZXp6pULsn3rjzLl+WekVYvHdEw7p/tUr1Jezx/nMYUTWElMAQcnpsOGgzjJRXO0m1tTF26il3fm4SzgSCZasBFg4I0ADxAy7KZ/v17yxdqVetwvByIyY/GfABwEB3CMS8DOV2IX5sqeX3fKnNmzpH6dmpLADBBvM6mtGLFXTzHyv1HDMVMEkxLtRiiZxXN8YEwlzormIA7yTIwJMOMobncLB8oc/r4fxgFwpHJUy1EulZWmHfvvLpivtCKKBsNAL/oBAxdOgWk42w9ni9cpbAdoFGnbBDvFx337dJcVn3+iIxfRNhoV9LRb3Sms/h2A4/OhkW/+j348xmDs37dHXp4+Rdq1buE9Ysv2TZJtuZYUAAAZI0lEQVTDZVQ+57onkXej6oVaXabduRlFGKf5QfKpLqa53Qtw/AMKjAEXC/DxnCurYYM6alqePnVMsjJT5fq1S54TO2/PxbCE+HdfIY7N+OtBefnZ8uHS93RgT/kyKTrNC0LARNbBv81I/37AxdCk6ylXsyVrgA+Nh+bDtKSsjBHdWg2jczqMz/Hvps2dnwc4oRdMCkPBQDTFTn3xOalXu7okUTj9t4RTYIAjKkz+E3Ch3TAtMSetxiNyTFcJIzreeXuOjlcwIwWDz1eAjdYzeIvvNKWCuXLo4D7p2bWzlC+TrLTCx2dZ0EG/pHjjo6GUQko+KsWLP6KFC2g3FqblfQGHDwdaTSW7S4/oNZXrZhIwB3owgRktR+cykhO/xF/pW6T30W7jUf0wEdKbWYDfb/hGB/FUrVxeD0OkG9oS5M/NpA/24aJddA1E6gxOnXzlx2OCL+Hh5jgionB0IxAMoKCWJDv1iIThOVKLgyjM4ZFB1nBUjnjmcAJC6A3gGFr09vw50rxpI3XsdYwGoX/vpCtrCTyYVjEu/N3AAEexOGVitr+PdhrTURKqHRN0TbDoA5wwYbQcPfKHpKfdkFsEQgJYgfIXOTUAZ/Km8HGempTnz5+WL9askOZNGmphMiDDLLbDiLEOEO7k3ph0RwUTuIkID9Hjm6l4AXCU6t3XpKS+DFsUFYiKZPHcfiABlCqVy6sv9/FH72unwN7ffpXf9vwStLVnz24NW1O1TU0nJ+SsXLlcwYbGZU+AxQ51hRg0lt7Wbg9mIgCnQPN0OvD7H7SQapwZHhpSTAt9sQRwnPF3rRleulSiTlfmDAE6vX/fG2Ra/bpb6UOKBFqRP4JuP27eKAMH9NFC2pDiD0tkaHHvuQrUSAZCq6IAjqAJGg2/DaARNEHjoe0wK/kbgOTv7Z5oKYvena9T4uAt/1egPLhbacMJQqSRlF57fpFff9mpQnLihDHq72J+I8hJIzFqHyHFc/K4dAbQiMw910G+bocpZ/QAjsAJxdb3NCnx4WAcjk3iyhg6TEuY+v/v7cqW47iOLJ/mYWY8Fgn0Ustd6y5V3Y2FosTh0HLYbxMTszw5rFFYMZZtWvY8SyQBAg30AoCeF/+CP8F/4/Cbw/aHnImT1Q1CsmyaDMHBSHZ3daG66t5cTua9mbmtDEwGowCyACtLdf/s0x/jyU8+uUX6IT755H+EmE395MmP8dF/f1/ujQzO3djMQaLAcVc7B4O7SN6Eid5G4IgCWGGZwsWxYmIrx4VjxVcig+3x//j3f5XSeT//2ZNbHKd+Dj799Cf49NMnMk4sYvrxDz6SgkVcPmF9GqlnKdWra+mxberhG43V2wgc240RMhJC0soxC4HCtvXfGMGk4NHyPXz/UAIoH//gQ3z60x99gX765Ef48/SmPPhD2aNJnmKvOfLVkyc/wv/+/An+6z//De89OMDjf34PszZgPHhHoCSXRPieUUu+Z10cBk049+QHyg+jlNzfSeJez79o4fglGWgLI8V6bDZf0tptfTq+Z8FT9hx4/Og9ENbdGj18gPce3JeeZmyPy+Z4hwd7wthyf0xurcZSQ4JmnxroTQMBInCSn/antfqpob6KaPn3JlkYuG9/paRWCrurEmYQchpCjsZgf9bi0fvv4l8e3uI4befg0fvS35w9zlnW/N37B7KeRIVJ5UnozcXZrS/ypvD7bQRONhowxYpBJm6Mr0eyT5OBEgofrds2oEJoSQv48L1DfOvR+0LkMTL/6+hNefBbjx/h8eNH0uP84cP3wPo9RHDsFjVpg8wvC0TVxa4EmYieKGzkMVo8qW3KFJyGwR8+F/MZmcvYQ0pH5MRSHH8uaNIwi5kMstcJPBqPduRCFDBaPVaYIqNttTl/hDUemZpwW8ROpUb3D3FwsCeh1qIgFHEidHwY3gO30XAwuLN9yjZEb7AOR4ETodpkb293j/ylV0IiPjNT68nA7BZLTC87DTbdh/ie6Ro8b3jvm6IYbmuceF0Ku+VYWCavepl4axTG491+WxtTWKRRC+u41NLMfsKajG8wVm8jcKyLwkDJdimA1uz+4VSs3nDwjgggrR/P2cJMKi1xE9ij8DX8xTVTKpLXnfeF76XHYJYQPqOJWpPPanETBNFNkixe04r1bgqhtxJBI5Iin3HvpNX9Hl0GTapyJNfpoSQTsKlk+vXsr1yH2y58U8AoeFsYScGioPHY9jg/V8VAwqOyzvKaxc+3P0cjM+PAGQyHTNgcycBQ6HkvvDea9cO9Thqz91rozWDS2wgcd2RwOw8nm0JHweI+OqnAvNnEyuPv7k+lzoVUs95063n7sXhdsILatp9orgW1bZI8u61ykkpjsnZkhYno+Dt9s5bL6/3dtxG4bZSS1ovCtrVytGzbAArf05fj9zwvE5pvAjv0ozhmIlQUrOugTd99dnvem4wrr6FVKbCP40QISB4jwiNfUehKUaJjUUz97/dNPKmsOHZUskQ3PJfU5iBLArwOiXPAsRcLR9jIbT7Hx09loy93mnDhm8f5ozyJTM3PwtTsZX1D6LbHaYHe5EHf5lwGc/gA1ETUHjcVA++VzMwdFPvM5ZKm7X8Dgds0PqHFoOactVHug++3xyh8vDcKZi9wb1b//q3GShJb7bWVY3ImdzuQITIDYGzKuFmHe6W5bwZO/pollNcJ/pe+J8wnBNvsOCE6oIARWlLg+N3W+hF28nuu3b2Kor6qHbqFwnzl+PQuxBfP/WvGjX+/Fbh+R4gXH0xvWoYxNkDkxPU2nsvfoWCT+Jk+HBEN07QooJQXChyLx4q1NH3l5muBU6rGBx98C0dHz68FbrvwTWESqLYpt02Lx88UOJH8YgC9gZd8ON7AbREFmma7cSwB3mI66ZBTuI4McscHC9cK9GQ9falbz/a/W+pLt0lR0I12lMCBwJDtFi8O2Kva+cz+Zai/Jw3HyNSXiBA0Wg3HtZa6b15JTE8i7icc4vtytIN6gwS+WJaPE9lPJjsC8f4ZzXtFfGbSzWN/+l66CRGRbIjRVkKj8WggE9/PKbVw37dOmIha2StMWaM/s4Aqm0mSOGY3Ba5/Rj5nTwbR9lFhsTac+y8VOZJx3hzfvqfwMHNcVUOhbeGf7bNJS2mWk9hEMhlMEUW+gYkyNtxYcIN4jDzHJQruh5WCPTfGQcb0euy2Y7kZcykiRaNCA2PEynGcuA7NyDODXeJ7T7PMZZ8tYcTSUeDov3FrF5Xo1l/n3zGtqWsT6or92UuxmteQUmuNb3/72zg+PsYf/vAHMH1EMmd5kzKIvaYhQ3PgyEB9hWFKfiUT3DPWl7TZ1w0tncKkNpjVDjMb0PkG0TvxVbioKMqBznijUDUVilijSAo1ywxQc7LAzCYjmB1AHXs6s3kD+3hJ3pJGKw0ah0jNDlKzi9gMEfxYGJCCZRsHFRpUIWIcWyHjM2YqoKs9WuWRrUOwPUKgcNqmgm7GqOwAlRtA85rhG8jhH5CbbyL5Qe87Of5dg8YGeMfoJv1JFiUqYGKBMiuUWaNMFlVsUMcA3URYz3J/Eck26LTHTFns1Qb7qsZUVUh1hcYw0deh9h4qBhhml/teQ3euxD5bEzdMLxqiCWOEZtM00dMKerQ2oDURnVBAp/k5IJgAZwOUDyhDg3FsME4eRXSoWe2rsTDewDCCLMqrxoRIiLtLdIHOK3S2xkRXmOkSe6bCzFbIrMXvmEhaYKIa7Fctpiojm4jGNbC+kbmwG7+IOWcTo7BHX1lrTGuHTjlkYxGIhGT7XS1z4RpWi+MG9TGyHaEzYyQaClp74XHWH2Hgq1dyVBIUKlo2WrOthXtlUbcNPXv/kX8nioX8xsprfF5pykKB1rgTY8R3v/tdvHjxAr/73e9E4MTR/gqNdW2iqU2+RNfffd2Ctrkef29PWRzUHlPdM3Z0FlKmbuNYC0RiUZioUZE5W4OaWd6SRe0RGxKLyVq4aGBTT9zpz7/txA8bIjc7yM0uUkPhY5LlZj9p42FDgIoJZexQpA6uyTgkU+iAmWkwseyr1xf96YW6hgkldCw2NEKMf48u/B3a5h+R/QCZgm4ComkRDPfnRTTWiab3fgwTxihziSJTiRiUsUEZI+omw/gW3iVEQ0HwmIrAKRzWJQ5ViSm711oyvRdFUcSIikLHCJowaol9PcbEDuHDLnwzRNMUG+VqkVwjwtaahE4ndCqiUwGtCkia9xlF8IsYMMwNBrkXuopFkNgIhv418+mYtMoMcqNEsfGZSZ1RmOkaB3WFA1Vhnz3x2MmmKWFChalKOCwnmNUdssmiXEwTYEIDI0q0T/Lkc+7rGvu1xqzymNQeWTkEQ+WnYdm6q2GPO9aIHCO6IVo7RGeGSLIGebsGwzvCe4s7/O+DDz7A0dERfvOb3+Cjjz5CDNSw/SLl9pVm/houUmpv0BbGXH9/89yv8f2EcNI3aEODFLjG4aXQTdc4zJzFvrPYk3N6Z5s+AeEvv596ntO/8jOL0Pjs4FjNOTm5Dv2aGFmLkzu8CX/YQYhkpC4F85pIDM4wfYk0CQYPnMKh09jnGiAFlxh/s2ti60hfvzYWrb+Hzn0Drd1BSwZTDm2dkOvJhjKS8khKIekxghmgcbtwjnU2xjCuguJaj7XQlsWeOJkbrWwLBDPERA0xUyO0UjFZQXuLIgRQ4MoQoL0Dc/laVWFWF2gVr70DZwdoLCNyJQJrhRiDaDyi5v04JGURa41YK0y1xdT2HZZcslBtT4Z1KzmOm+zwxDKEJG7u9Uz8ZTOVnpJ16IzDniZZTA3PMYI+FOeASqyOaHVAsOTLXpAN9182Co4FkljwlmX3WD9E1Whri8R7VBpB9T4Y1/hInsIsz8cSdiNEJtJK5e0b/P018uxWJlIMyDn3Avf48WM8f/5cMrgJKUNgQZa+qR/hFokmlySQcgPBkqN22dDmOwnh3tJ7Ym1HjRkMNAd8UzGXUHBPUavXQgc1oUWNqa4wNRX2dIV9ak9VizZtxRdV/aRGLdfjdaXKWHBiER2jSkxTYvtlR+tXY2oJeUrMWFvfjTB1Q8zcADO3K+8nfoTWj5GlfBxT7IkENJI1SIYQxwtNXIGpH2LiKrGIU50x1TNM1B4m9R6maoKpiphqIxZqZkbYN/ewZ3YxtdTMhET0r1ku3IpfaUMNF0vYOIKNQ2Q/lHuJTQnP0nTJoc4RVU5QKcGFiOg9OmOwpxWm7PbiRlJNObq+PHc/twbJ0dKRDJL4cVS4FfZUiX3urGFRJ1/AhQI2sMpbX5U5u7HcK+83uUJ28RiboFyE8iQWTmoQDOE4YaBFq4woAs38xKjgWUGO8yBR177GDoW5J5bj74U5BkY2Cd/oj1v0UVTeO+kGnwoyo396k3pX6TZ51xFlGIM7lDpauGfPnuGPf/yjWDhP7ceIy5eI21f6dZFeC1ETbWl7/LZeKezUaJwE+makKtYwLGpD7F9XOCxLvFuWuF8WOKgK7Ndj0fL79QgH1ViOiTbnuiGjU7xe0KgbAy3FjCzqEFCHKL4afTY+cw99CM/G2NND7JtdEYB98w6m9h2k5i5Scw+x2UWgj9bQ7yMD10gCFw1aTYbyPRFKMSHWWUxsxNR0mOo9EbipmmGmOswEohrMTI1DM8JDfRcP9A7uy+8XmLL3NBUbFQV90VTD5gK6HUG3Q/hIX3EMTyFMGpqdYdoIlTN0yvAhI/qAzrreUhkqlQqtq5DZq46Khs/OOZa+d/wtMjThdSHPuK8GuF/tYqYJiwcIfoCGPqnANfpHI3R6jE4XyJYBEIPaTVD6FmWTUTYJ2kU4Q3hKCGiRKXBGy7zWoYLKFUxbwuUKPrF25IZCjbAhHxVcUjBZwSQFR4FkG2FGOBk1dAad7YnvM4WQPuyGv2/y9W3x77XAEVI+evQIn3/+OX7/+9/je9/7nqySbxMqt6+MUG6JES6GvG8SncPt97f1WgeFIiuM2p7o0ygOuu/hxL4qcVCTCuzpAlMzQkvrYwaY6SH21AhTmXym0NTQFDZWJaNVazycb6AocJF+WgO7sXL9pJWY2BGmdoCpWLR7mLq7yM09uDQUsmm4sTBjsTaNMCejZ1omfGKMWC0pLCMpQhbRNkiGELIVyiqhVY1oesJBMi0Z+2F1Fw/qXdyn8qBvpmu0preeRCCuqSW4otMIOg+g4y50GEDFMepYo0oGVfLiv6mQNsGWIFCRjE7LQn+q3RJ9LFoDRhpZpUss5QgukOjvDXGgd/FA7WDPDNC5IZIncczpE3L8ex+S1+W1CCNVmKGOU1SpQ51a2JDQ+IjWekwsFZBGu/lNl0oU3QCjbgdluwsdB3D0MT2DWaypUsD7EjqUqFKJca6EqlhChVKCJIR02dTolBJqtUbStKIWzjGo08Px2+JZXpcBva5rMZ1OcacsSzx8+FAEjhbu448/FkhpGZVzbA/1RaIDylqMxP8kRoFIPCbf8ftbIN4HBYTBkKLVGHVaBK9KhIY9js/XGppRthI+jmHbAUIaIYUx2maMzAhc6LUgYZZOFCzWfSTESnCRxwxM0nBxA1mYK9Yw+sRqX6wVWaCJPdlUoWZwptWoM0mhbhVUrmFSBZcqNJHRrRKtZ2SO0cAKllqZZQwaFh2lb+LROPaBIxziEgvD81xH3EFnd3GoRzhgkqYmXLaYaY+JDuhMQLYByXFXDXcIEWJVMBS0RCpRpxo1625GDx0YMIlwm+hmsFECLlkTXlrxpzprJYDU0srx2QOfoYCPo41iGcDFAWZ2KNZ3yoifjA2XHWh5FTpnBC5PrEfrGFHmGHN8O5jUQucMkyN8pD/uMHEGe05JxHTmS3ShQExjjCc72J3dxXhyFyrvwAdGdXvBFpjqK5hQo0z1RhHXGOcSFDrN+ybKoBLRFDiNVhskzeUjrrd5GMfXPrByG3y7vSbdtBAC7hBXfuc737leFvjkk0/Qdi1YO9J51ib8U+LWL9n+xSjhhrg+9lXnfn3HjES8FCOQicKmMWy1WLw6KhgKUVPDhgo6VqhyhaIrMJ4NUU9GsO0YPhUCS1zSMNlCZw+dAnxIiD4juywVnW0sQHJkskAfqBZyhLBJgc58lY1EQYvWY5wTxjlizAgdP7cWRatQtSVUHsPmIXzaRYg7iHEHNpdQFMpWQxPu8X6i7oUw0hfjb9Na7sBFFtbdFbjHKCoZeGISJrrFRHevyLQCT/l9x4hYrFG3FepMYdNQ0cIED9c08J4dZrickBB8QnQZyUZ0usFEIq39NVpZ5K0RY4mQOH4juDyEzQPYNEBLX5RhfEZxGYXkjn9mbXjXRzdtRLb99T2jqU1G0wQ4ogfW/UisL0nIqsSf3bcFDu0Y+26IaTNAigMU03vY3buL0fQudN5BEwdIzcZX5vpl0/viVCjj1ojQjdsKZaqgAqOS/Y6UTMupe2hPX5pLMN4FOMdX9hm8Rf6VNT5uaFa4M5/P8ctf/hK//vWv8dvf/hYffsiaJpwYOuNcu7pBm5u6Fjhq1A3d6g3zd7ndxmpop1B5hVFQGMQaw1hhHCqUTU9FKDGMJXZyibvdGHenAwy6AcZ5iCqMUYcSNTVi0CiDRdV4GBvQ6IikuK5UwPhdGD+A8UMYN4JxJZSvUPkKRaMxDAa70eJectiJAQPfYuAzBk3EIDQYRCP3NooFisjf3YGK78CEf4IN34TOhVjBuq17gaBQZPorhQioSiOotAuV70HldwRKMbwuvrXj+leLpCfIaoauJk0xqTtMVMaEYXvtYeMrq6siA0xUoA5eGIxrfQENyUc0TUZ0CZnhfh0ksJMs1+B6y95Q6UTC5BFMHEKTuGYnfhn9aIW60agaC+UZNfXwpkGjAxqT4EyGti20ZZBEyRzWvkbNFmGOyZljZM3I6i5m9S4m6h5acw/B3UPR7mB3uoPRZAcqD+DDCEmCMSVaLnnIGlvvFpTJYZwpeLUsoRBK0+/nGiq37XF5hFHRxKgrgzWWkc+/jcDZbdAEd+5A/t2BVAX+1a9+heVqieV68QVarRbSkHH7ul4tcJNWy3Msb5sW51gsznG2OseL9TmOSBdnOFmfYb6hk/UcRxdzPL2c4/OrE3z+8ghHV0c4uTzGfH2Cs9WpnHuyXuDFeomT1QpnyzVW5xe4OFtjuTjFYnXc0/IFFssTLJanOF/NMV/NcSK/u8CziyWeXqzwbH2B48UVjpeXOF5d4Gi9xtHFUu7r+OIELy6Ocbp+jrOLpzi/+AyL9Wc4uzzB/PIMp5dznF6e4vTyBKdXL3B6dYzTyyOcXj7DyeVTvLj6TOjk8nn/jKsFzpdrLM6vsDp7icvT/8MV6eQXeHnyElenV7iar3F1tsT5eonTqwXmlwsZL47b6nyB9RlpidX5EqvlCovVGov1JVaLS1yeXOByfoHLsxUuzs+llsd6dYLV+hjL9XMs1s9wzmchrZ5juTzFcnmG+eoc2/Gcr1Zyj8vzNVZnFzKuy8UlzpZX/b0v55gv5zhZneIF52LF8X2Bi/MjXJ09xy/mz/Hy7Bkuz59iveQYPMWzl09x9PIp5hfPsVwd4XJxjKuzE1ydzeU+V4sFzpYr8LdfrBc4uprj+HKOFxdznK45b2c4X53Jva4W51ifL3FxRlrJK//+1nl3ucBiscD/AxwhNLjZfxlWAAAAAElFTkSuQmCC;" vertex="1" parent="1">
          <mxGeometry x="1040.0003359087777" y="-18.50075977998614" width="220" height="103" as="geometry" />
        </mxCell>
      </root>
    </mxGraphModel>
  </diagram>
</mxfile>
